<svg id="bef97f87-db67-408a-ba21-e0723f04a15c" data-name="Layer 1" xmlns="http://www.w3.org/2000/svg" viewBox="0 0 400 400"><defs><style>.bcdf3ddd-b97b-4f5f-aafd-5adb3debd664{fill:#a2ddf8;}.a9a564a1-95d6-40cb-b57a-1fc0e7754f32{fill:#3a8ec1;}.bc17292a-cf84-465c-ac4c-6f46d815d5c3{fill:#aed6e5;}.bc19e8b7-edf0-492a-a217-eddc6a67aeae{fill:#8cc945;}.a4c02ce2-66e6-4cde-b255-d195e147bade{fill:#f9a853;}.a7de85b1-070b-4447-9307-c23276c584b9{fill:#fcf0be;}.bd2bf9c3-8255-419a-81ba-b582d8db823b{fill:#81c241;}.bda42324-b3d9-454c-9939-627f78742a6e{fill:#f8b79d;}.b8a17a27-17af-401d-a029-d309580e8de2{fill:#a7d388;}.a5651e23-42f3-410f-a200-96451325d493{fill:#40bd0f;}.a87b7be3-9d63-4d63-befa-2451cdee362e{fill:#ffe04a;}.bf82d6af-ac22-42f7-9252-63fe846ef76c{fill:#badfe8;}.b1d755c2-3388-448b-8562-19028a634514{fill:#f40010;}.a87e2b7c-9392-4a38-928e-430fe620224c{fill:#ee646b;}.e9a3ec68-7640-4ab9-b9cc-65dcec1d8754{fill:#fff;}.a8cdf9a9-0896-48ff-8f23-9d4b063e8395{fill:#ec1c24;}.ab70bafb-29f1-4bd0-90b1-315a0b3a4ed1{fill:#1d93ff;}.bc4bf851-ca06-4270-9649-f739a4f5a65d{fill:#c12d8c;}.b1caebae-08fe-474d-b303-a34db5c08c71{fill:#fff03b;}.b9b87b19-bb6d-476c-8811-56e260a48366{fill:#ff4a1b;}.acab44a5-15a1-46d0-96e8-078e5d85da50{fill:#cbe3ac;}.bc9929ee-e47e-4905-8ce8-0734fcd1063e{fill:#f79850;}.ae1a6a9d-a789-4399-abe0-48c9f98152d8{fill:#524538;}.a378252d-61bf-4576-8897-02fba5e47a8c{fill:#d6c4b1;}</style></defs><title>green_donut_signet</title><path class="bcdf3ddd-b97b-4f5f-aafd-5adb3debd664" d="M257.16,88.63a147,147,0,0,1,14.48,8.07,139.78,139.78,0,0,1,12.49,8.43,134.42,134.42,0,0,1,11.19,10.13,132.36,132.36,0,0,1,10.18,11.15,136.27,136.27,0,0,1,9,12.12c2.12,3.36,3.51,7.11,5.31,10.9.43.9,1.2,1.63,1.63,2.53a134.35,134.35,0,0,1,5.45,14c.39,1.11,1,2.13,1.43,3.24.68,1.88,1.31,3.82,1.89,5.76a11.2,11.2,0,0,0-4.36.81c-1.61.66-3.23,1.31-4.79,2.08a7.78,7.78,0,0,1-8.65-.88c-1.24-.9-2.5-1.79-3.8-2.6a7.44,7.44,0,0,0-4.17-1.07,6.33,6.33,0,0,0-.86.06,25.61,25.61,0,0,0-8.24,3.11,59.86,59.86,0,0,0-13.29-7.16A126.09,126.09,0,0,0,257,162.12a5,5,0,0,1-2.85-1c.31-3.22.71-6.38.89-9.55.13-2.2.19-4.41.21-6.62,1.65-.41,3-1.21,3.18-2.81a5.08,5.08,0,0,0-3.3-5.38c-.07-1.48-.13-3-.19-4.39.26-.17.35-.27.43-.28.41,0,.82,0,1.23,0,3.46-.16,4.42-.93,4.49-4.45a41.31,41.31,0,0,0-.59-8.9,29.11,29.11,0,0,0-13.68-19.67,33.87,33.87,0,0,0-3.22-1.8c-1.17-.55-2.4-1-3.72-1.45.8-1.16,1.55-2.13,2.18-3.18a10.23,10.23,0,0,0,.78-9.47c-.06-.15-.13-.3-.2-.45l2,.72A119.71,119.71,0,0,1,257.16,88.63Z"/><path class="bcdf3ddd-b97b-4f5f-aafd-5adb3debd664" d="M79.26,152.08a137.06,137.06,0,0,1,7.5-13c.46-.74.86-1.51,1.32-2.25,2.18-3.51,4.08-7.39,6.64-10.59a145.26,145.26,0,0,1,21.74-20.92A132.41,132.41,0,0,1,141.8,89c3.87-1.87,8.33-3.24,14.13-5.27,4.11-1.43,8.23-2.82,11.8-3.79a25.82,25.82,0,0,0-8.45,10.4,11.87,11.87,0,0,0,.69,11.52c.4.7.86,1.36,1.34,2.1-.54.67-1.06,1.3-1.59,1.92a56.7,56.7,0,0,0-8.34,12.91,29.23,29.23,0,0,0-2.24,7c-.78,4.34.43,6.13,4.65,7.13.66.16,1.34.27,2.18.44l-.12,2.89c-.47.13-.93.27-1.39.44a4.33,4.33,0,0,0-2.11,1.4,4.4,4.4,0,0,0-.45,3.22,4.08,4.08,0,0,0,.81,2.17,2.71,2.71,0,0,0,.95.66,5.74,5.74,0,0,0,1.86.35l0,1c-.16,4.08.59,8.16.21,12.53-5.82,0-11.23,1.74-16.95,2.59a19.1,19.1,0,0,1,.37-6.74,11.69,11.69,0,0,0,2.07-1,2.09,2.09,0,0,0,.76-2.47,2.37,2.37,0,0,0-2-1.71,8.81,8.81,0,0,0-1.54,0l-4,.27-11.31.72c.34-1,.56-1.74.86-2.47,1.14-2.76,2.31-5.5,3.45-8.25a10,10,0,0,0,.59-1.75,2.41,2.41,0,0,0-1.62-2.93,2.38,2.38,0,0,0-2.9,1.1,16.71,16.71,0,0,0-1,2.26c-1.36,3.44-2.7,6.89-4.07,10.33-.26.65-.6,1.27-.87,1.84-.45.08-.75.16-1,.2-3.57.38-7.15.71-10.72,1.15-2.14.27-4.26.67-6.37,1.12a2,2,0,0,0-1.74,2.2,2.22,2.22,0,0,0,2,2.08c.77.15,1.55.2,2.37.31.53,4.24,1.64,8.19,2.21,12.37-4.28,1.79-7.57,4.2-9.5,7.44a12.22,12.22,0,0,0-5.57-1.07A15.51,15.51,0,0,0,81,177.91a7.85,7.85,0,0,1-7.36.79,37.22,37.22,0,0,0-4-1.14,116.72,116.72,0,0,1,3.25-11.8C74.5,161,77.05,156.67,79.26,152.08Z"/><path class="a9a564a1-95d6-40cb-b57a-1fc0e7754f32" d="M334.12,225.41c-1.93,20.05-9.25,39.38-19.95,56.38a136.62,136.62,0,0,1-8.83,12.56,130.13,130.13,0,0,1-33.52,30.13c-16.34,10.29-37.23,18-56.47,20.14a129.42,129.42,0,0,1-14,.67c-.56,0-.56-.18-1.13-.18a143.32,143.32,0,0,1-15-1.29,135.49,135.49,0,0,1-14.89-2.26,137.75,137.75,0,0,1-28.42-9.89,135.12,135.12,0,0,1-13.32-7.1,143,143,0,0,1-23.23-19.15,133.84,133.84,0,0,1-10.15-11.13,141.45,141.45,0,0,1-8.78-12.57A135.3,135.3,0,0,1,79,268.63a126.76,126.76,0,0,1-10-28.18c0-.08,0-.11,0-.19a131.46,131.46,0,0,1-2.27-14.89,141.86,141.86,0,0,1-.3-30.09c.4-3.6,1-8.38,1.9-13a16,16,0,0,1,1.6.27c1.08.32,2.15.68,3.22,1a10.1,10.1,0,0,0,6.94,0c1.44-.53,2.81-1.24,4.19-1.9,3-1.43,6.15-2,9-.82a20.7,20.7,0,0,0-.11,5.92c-.65.68-1.37,1.33-2,1.86-2.61,2.2-3.85,4.9-4.86,8.08-.28.88-.56,1.76-.86,2.64a20.85,20.85,0,0,0,0,13.2,2.39,2.39,0,0,0-.61.93,38.22,38.22,0,0,0,.44,26.94c3.18,7.94,8.84,14.06,15.68,19,12.48,9.09,26.73,13.5,41.78,15.8a470.47,470.47,0,0,0,55.06,5.11c17.34.59,34.66-1.15,51.76-3.89,16.54-2.65,31.25-6.79,45-16.82,6.84-5,12.71-11.3,15.89-19.24a37.23,37.23,0,0,0,2.6-11.64A31.22,31.22,0,0,0,316,212.14a51.54,51.54,0,0,0-2.44-12.06,40.44,40.44,0,0,0-10.77-17.37c-1.12-1-2.46-2-3.63-3a23.19,23.19,0,0,1,4.28-1.36,4.54,4.54,0,0,1,3.51.69c1,.69,2,1.49,3,2.18a12.62,12.62,0,0,0,12.82,1.24c1.79-.77,3.56-1.59,5.38-2.26a5.34,5.34,0,0,1,3.48-.23c0,.06.23.31.24.36,1.05,4.63,1.31,9.34,1.94,15A146.3,146.3,0,0,1,334.12,225.41Z"/><path class="bc17292a-cf84-465c-ac4c-6f46d815d5c3" d="M117,285.94q.35-.9.78-2.37a18.2,18.2,0,0,0,.56-2.44,16.35,16.35,0,0,0,.13-2,10.43,10.43,0,0,0-.12-1.72c-.08-.47-.2-1.07-.36-1.79a3.22,3.22,0,0,0-1.07-1.79,5.57,5.57,0,0,0-1.59-1,5,5,0,0,0-1.4-.33,9.26,9.26,0,0,0-1.29,0,7.87,7.87,0,0,0-1.83.45,8.56,8.56,0,0,0-2,.91,8.37,8.37,0,0,0-1.53,1.39c-.5.58-1,1.18-1.48,1.81a20.29,20.29,0,0,0-1.19,1.71c-.31.51-.57,1-.79,1.38a43.42,43.42,0,0,0-1.44,4.53,28.48,28.48,0,0,0-1.16,5.23,11.39,11.39,0,0,0,.1,2.5,9.34,9.34,0,0,0,.47,1.81,9.14,9.14,0,0,0,.73,1.51c.29.47.6.94.94,1.39s.74.95,1.22,1.49,1,1.14,1.63,1.77a17.32,17.32,0,0,0,2.82,1.83,2.58,2.58,0,0,0,1.41.23,2.25,2.25,0,0,0,.95-.39,2.7,2.7,0,0,0,.67-1.14c.22-.57.4-1,.54-1.31l1.2.17a1.89,1.89,0,0,0,.67-1.25,3.46,3.46,0,0,0-.31-2.17,10,10,0,0,0-1-1.78,5.14,5.14,0,0,0-1-1,15.85,15.85,0,0,0-2-1.25c-1-.54-1.61-.68-1.86-.45a1.53,1.53,0,0,0-.48.79,2.18,2.18,0,0,0,0,.88,2.64,2.64,0,0,0,.41,1,7.74,7.74,0,0,0,.87,1.11,1.46,1.46,0,0,1,.5,1.11c-.11.65-.36,1.06-.55,1.1a2.17,2.17,0,0,1-1.15-.43,5.84,5.84,0,0,1-1.67-1.64,4.88,4.88,0,0,1-1-2.08,8.57,8.57,0,0,1-.07-1.8,11.55,11.55,0,0,1,.3-1.74c.16-.61.33-1.18.51-1.72s.39-1.15.61-1.85a9.93,9.93,0,0,1,1-2.08,2.69,2.69,0,0,1,3.31-1.32,5.59,5.59,0,0,1,1.59.83,2,2,0,0,1,.83,1.14,3,3,0,0,1,0,1.3,1.25,1.25,0,0,0,.06,1,1.2,1.2,0,0,0,.84.42,2.65,2.65,0,0,0,1,0,1.74,1.74,0,0,0,.86-.57A4.35,4.35,0,0,0,117,285.94Z"/><path class="bc17292a-cf84-465c-ac4c-6f46d815d5c3" d="M132,289.34a4.78,4.78,0,0,0-2.72.08c-.87.24-1.7.5-2.51.79-.62.38-1.23.75-1.85,1.11q.48-2.83,1-5.7c-.4-2.13-1-3.1-1.68-3a3,3,0,0,0-2,1.66,24.14,24.14,0,0,0-2,5.71c-.7,2.8-1.56,5.53-2.19,8-1.28,4.93-1.45,8.17-1,9.25a3.09,3.09,0,0,0,1.57,1.66,5.14,5.14,0,0,0,2.11.38c.74,0,1.6-.79,2-2a29.79,29.79,0,0,0,.72-4,28.72,28.72,0,0,0,.36-4l.3-1.5a4.57,4.57,0,0,1,4.33.94,8.54,8.54,0,0,1,1.78,3.23,2.08,2.08,0,0,0,1,1.2c.54.33,1,.36,1.27.09a4,4,0,0,0,.81-1.95,27.66,27.66,0,0,0,.53-4.18,23.33,23.33,0,0,0-.11-4.72A3.74,3.74,0,0,0,132,289.34Z"/><path class="bc17292a-cf84-465c-ac4c-6f46d815d5c3" d="M151.51,297a10.4,10.4,0,0,0-2.33-4.26,11.25,11.25,0,0,0-3.46-2.24,4.82,4.82,0,0,0-2.94-.64,6.17,6.17,0,0,0-2.76,1.41,7.57,7.57,0,0,0-2.12,3.15,38.29,38.29,0,0,0-1.53,5.37,63.73,63.73,0,0,0-1.18,7.72,38.22,38.22,0,0,0-.23,6.58,9.39,9.39,0,0,0,1.52,4.23,16.66,16.66,0,0,0,4.44,4.33c2,1.15,3.41,1.7,4.2,1.69a4.23,4.23,0,0,0,2.32-.81,6.93,6.93,0,0,0,2-2.17,9.41,9.41,0,0,0,1.15-2.9,20.7,20.7,0,0,0,.41-2.89,5,5,0,0,0-.12-2,1.66,1.66,0,0,0-1-.91,1.61,1.61,0,0,0-1.37,0,4.68,4.68,0,0,0-1.42,1.18,10.11,10.11,0,0,0-1.2,1.56,2.32,2.32,0,0,1-1.16,1c-.52.22-1.1,0-1.74-.56a5.21,5.21,0,0,1-1.36-2,13.32,13.32,0,0,1-.65-2.71c-.15-1.07,0-4.31.78-5a3.12,3.12,0,0,1,2.34.26,6.7,6.7,0,0,0,1.41.94,6.44,6.44,0,0,0,2.68.6,9,9,0,0,0,2.59-.14,2.43,2.43,0,0,0,1.51-1.58,12.14,12.14,0,0,0,.23-4.5A26.22,26.22,0,0,0,151.51,297Zm-3.58,4.67a21.3,21.3,0,0,1-6.08-1.05,6.87,6.87,0,0,1,.29-2.57q.38-1.17.87-1.32a5.24,5.24,0,0,1,1.58-.1,3.87,3.87,0,0,1,2.08.76A3.3,3.3,0,0,1,148,299,5.5,5.5,0,0,1,147.93,301.63Z"/><path class="bc17292a-cf84-465c-ac4c-6f46d815d5c3" d="M170.55,301.91a10.44,10.44,0,0,0-2.6-4.29,10.78,10.78,0,0,0-3.65-2,4.69,4.69,0,0,0-3-.39,7,7,0,0,0-2.77,1.85,9.14,9.14,0,0,0-2,3.73,48.87,48.87,0,0,0-1.34,6.16,79.26,79.26,0,0,0-.86,8.8,46,46,0,0,0,.07,7.41,9.43,9.43,0,0,0,1.79,4.42,14,14,0,0,0,4.84,3.86c2.14.85,3.64,1.15,4.45,1a5.15,5.15,0,0,0,2.36-1.35,9.07,9.07,0,0,0,1.91-2.72,11.54,11.54,0,0,0,1-3.33,26.26,26.26,0,0,0,.27-3.17,5.32,5.32,0,0,0-.24-2.09,1.48,1.48,0,0,0-1.06-.8,1.63,1.63,0,0,0-1.41.18,5.74,5.74,0,0,0-1.4,1.52,12.6,12.6,0,0,0-1.15,1.9,2.91,2.91,0,0,1-1.15,1.29,1.52,1.52,0,0,1-1.82-.3,4.7,4.7,0,0,1-1.52-1.92,13.44,13.44,0,0,1-.8-2.86c-.22-1.15-.32-4.68.56-5.57a3,3,0,0,1,2.41-.08,6.37,6.37,0,0,0,1.5.8,6,6,0,0,0,2.79.22,9.73,9.73,0,0,0,2.66-.55,3,3,0,0,0,1.46-1.93,13.52,13.52,0,0,0,0-4.83A26.33,26.33,0,0,0,170.55,301.91Zm-3.42,5.49a20.06,20.06,0,0,1-6.3-.29,8.17,8.17,0,0,1,.17-2.86c.22-.88.49-1.4.83-1.55a5.27,5.27,0,0,1,1.61-.31,3.64,3.64,0,0,1,2.18.56,3.19,3.19,0,0,1,1.42,1.58A6.3,6.3,0,0,1,167.13,307.4Z"/><path class="bc17292a-cf84-465c-ac4c-6f46d815d5c3" d="M190.11,300.9a4.67,4.67,0,0,0-2.83-1.55,14.92,14.92,0,0,0-2.8.2,4.24,4.24,0,0,0-2.65,1.66l-.74.77c-.13-1-.25-2-.38-3a3.22,3.22,0,0,0-2.59-1.23,3.89,3.89,0,0,0-2,.8c-.42.39-.8,2.06-1.16,4.75q-.48,9.88-1,19.75-.15,3.74-.29,7.46c.18,2.23.81,3.55,1.89,3.92a4.09,4.09,0,0,0,3.35-.36,36.57,36.57,0,0,0,1.63-10.73q.13-6.12.78-11.76a1.46,1.46,0,0,1,1.65-.7c.69.16,1.54,1,2.59,2.55a12,12,0,0,1,.93,3.88,41.64,41.64,0,0,1,.16,4.45c0,1.47-.07,3-.15,4.45a17.44,17.44,0,0,1-.64,4c0,1.18-.07,2.38-.15,3.61a4.67,4.67,0,0,0,.88,3.19,19.17,19.17,0,0,1,2.17.38,2.24,2.24,0,0,0,2-.47,20.75,20.75,0,0,0,1.93-8.15c.27-3.56.46-6.4.57-8.49a53.59,53.59,0,0,0-.57-8.85A42.94,42.94,0,0,0,190.11,300.9Z"/><path class="bc17292a-cf84-465c-ac4c-6f46d815d5c3" d="M221.69,309.77q-.45-3.69-.87-5.56c-.28-1.24-.67-2.63-1.16-4.15s-1.06-3.15-1.68-4.89a28.57,28.57,0,0,0-1.68-3.94,14.43,14.43,0,0,0-2.09-2.76,16.31,16.31,0,0,0-2-1.92,3.87,3.87,0,0,0-1.73-.66,10.05,10.05,0,0,0-2.69,0,4,4,0,0,0-2.31.84,3.76,3.76,0,0,0-1,1.59,10,10,0,0,0-.35,2.36c0,.95,0,2.52.12,4.71s.35,7.85.69,17,.57,15.08.66,17.83.29,4.41.6,5a4.51,4.51,0,0,0,1.3,1.53,3.44,3.44,0,0,0,1.78.71,11,11,0,0,0,2.11-.06,34,34,0,0,0,4.67-.91,6.19,6.19,0,0,0,2.87-1.57,10.89,10.89,0,0,0,1.77-2.62,15.23,15.23,0,0,0,1.15-3.15,36.46,36.46,0,0,0,.54-5.63,62.83,62.83,0,0,0,0-7.07Q222.14,313.46,221.69,309.77Zm-5,10a11.85,11.85,0,0,1-.93,3.47,5.82,5.82,0,0,1-1.63,1.93,3.71,3.71,0,0,1-2.16,1,1.72,1.72,0,0,1-1.54-1.13,7.88,7.88,0,0,1-.79-2.57c-.13-.93-.21-1.92-.25-3s-.15-4-.35-9-.34-8.58-.45-10.9a17.74,17.74,0,0,1,.15-4.5c.2-.67.7-.84,1.5-.52a5.18,5.18,0,0,1,2.14,1.71A14.74,14.74,0,0,1,214,299a24.67,24.67,0,0,1,1.4,4.29,39.23,39.23,0,0,1,.92,4.42c.13,1.06.28,2.93.46,5.63A31.57,31.57,0,0,1,216.7,319.72Z"/><path class="bc17292a-cf84-465c-ac4c-6f46d815d5c3" d="M239.81,301.42a18.24,18.24,0,0,0-2.76-3.78,5,5,0,0,0-2.71-1.61c-1,0-2.44.47-3.76.62a4.21,4.21,0,0,0-3.24,2.63,19.75,19.75,0,0,0-1.7,6.83,69.39,69.39,0,0,0-.31,7.8c.19,7.62,1,12.76,1.89,14.94s1.75,3.43,2.45,3.76a3,3,0,0,0,2.16.17,24.07,24.07,0,0,0,5.84-2.65c1.87-1.17,3.57-3.67,5.06-7.4a15.15,15.15,0,0,0,.93-3.75,28,28,0,0,0,.33-3.88,27.52,27.52,0,0,0-1.59-7.74A32.68,32.68,0,0,0,239.81,301.42Zm-4.74,21.49-.9,1.2a2,2,0,0,1-2.6-1.29,10,10,0,0,1-.93-3.77,10.56,10.56,0,0,1,.5-3.83,3.78,3.78,0,0,1,1.58-2.38,2.39,2.39,0,0,1,1.8-.27,3.59,3.59,0,0,1,1.51.95c.47.46.73,1.49.79,3.08A14.47,14.47,0,0,1,235.07,322.91Z"/><path class="bc17292a-cf84-465c-ac4c-6f46d815d5c3" d="M263.49,304.46a34.91,34.91,0,0,0-1.82-6.63,26.71,26.71,0,0,0-4-7.38,4,4,0,0,0-2.8-.26,15.47,15.47,0,0,0-2.51,1.19,5.3,5.3,0,0,0-2.13,2.42l-.55.94c-.28-.8-.57-1.6-.85-2.41a2.81,2.81,0,0,0-2.59-.05,4.67,4.67,0,0,0-1.67,1.48c-.32.51-.38,2.14-.23,4.68q1.32,9,2.63,17.8.54,3.33,1.09,6.63c.56,1.82,1.35,2.56,2.36,2.23a6.14,6.14,0,0,0,2.86-2.27,33.87,33.87,0,0,0-.42-9.82,102.63,102.63,0,0,1-1.31-10.23,2,2,0,0,1,1.36-1.32c.64-.17,1.55.17,2.73,1a7,7,0,0,1,1.45,2.74,30,30,0,0,1,.86,3.51c.21,1.19.4,2.4.58,3.64a15.13,15.13,0,0,1,.09,3.54c.18.95.33,1.93.46,2.95a2.4,2.4,0,0,0,1.25,2q.85-.47,1.89-.9a3.47,3.47,0,0,0,1.65-1.48,18.91,18.91,0,0,0,.39-7.23Q263.81,307,263.49,304.46Z"/><path class="bc17292a-cf84-465c-ac4c-6f46d815d5c3" d="M280.8,289.55q-.62-2.4-1.25-4.88c-.59-1.36-1.34-2-2.23-1.77a4.65,4.65,0,0,0-2.5,1.6,25.23,25.23,0,0,0,.72,8,68.29,68.29,0,0,1,1.5,8.18,2.24,2.24,0,0,1-1.25,1.36,3.23,3.23,0,0,1-2.61-.34,5.12,5.12,0,0,1-1.44-2.24,24.05,24.05,0,0,1-.88-3.07q-.35-1.58-.63-3.24a13.08,13.08,0,0,1-.17-3.14c-.19-.86-.35-1.75-.5-2.67a2.74,2.74,0,0,0-1.25-2,15.59,15.59,0,0,1-1.77.46,2.38,2.38,0,0,0-1.55,1,18,18,0,0,0-.29,6.87q.49,4.23.82,6.67a30.06,30.06,0,0,0,1.82,6.36,16.4,16.4,0,0,0,4,6.2,4.28,4.28,0,0,0,2.76-.65,25.65,25.65,0,0,0,2.41-1.9,7.81,7.81,0,0,0,2-2.75l.49-.95.85,1.62a3.58,3.58,0,0,0,2.41-1,7.49,7.49,0,0,0,1.49-1.77,7.4,7.4,0,0,0,.08-3.5Z"/><path class="bc17292a-cf84-465c-ac4c-6f46d815d5c3" d="M295,277.92c-1.06.17-2.34.76-3.36,1a14.65,14.65,0,0,0-.16-3,18,18,0,0,0-.69-1.91,4.72,4.72,0,0,0-1.64-2,5.51,5.51,0,0,0-2.6.8,1.68,1.68,0,0,0-.71,1.47c0,.59.06,1.14.1,1.66.38,1.31.76,2.6,1.14,3.88a3.27,3.27,0,0,1-2-.1,2.74,2.74,0,0,0-2.18.15,2.3,2.3,0,0,0-1.34,1.32,2.64,2.64,0,0,0-.07,1.35c.09.38.22.92.39,1.61a2.77,2.77,0,0,0,1.23,1.68,2.39,2.39,0,0,0,2.25.13l2.54-1,2.43,9.57a10.7,10.7,0,0,0-.12,2.53A4.41,4.41,0,0,0,291,299a2.65,2.65,0,0,0,1.75,1.21,2.38,2.38,0,0,0,1.14-.86,6.42,6.42,0,0,0,.61-2.7,19.52,19.52,0,0,0-.6-5.63c-.54-2.4-1.06-4.88-1.58-7.42l2.74-.68a4.29,4.29,0,0,0,1.89-.92,2.25,2.25,0,0,0,0-2.52C296.41,278.47,295.65,277.82,295,277.92Z"/><path class="bc17292a-cf84-465c-ac4c-6f46d815d5c3" d="M85.38,212.11s-2.17,2.26-3.39,8a39.82,39.82,0,0,0,.85,17.82c1.38,5.41,4.83,11.14,10.18,17.22,7.75,8.79,20.91,15.79,38.09,20.12,14.29,3.61,31.5,5.16,49.47,6.3,22.81,1.46,47.21.69,68.38-2.75,17.78-2.88,33.11-7.41,44.9-16.29,5.7-4.3,12.26-9.84,16.57-18.49,2.92-5.86,3.94-9.84,2.11-17.36C305.13,196.29,85.38,212.11,85.38,212.11Z"/><path class="bc19e8b7-edf0-492a-a217-eddc6a67aeae" d="M306.25,231.12c-2.34,4-9.74,6.57-13.85,5.5A80.89,80.89,0,0,0,284,235c-3.05-.45-6.13-.68-9.2-.92-2-.16-4.1-.25-6.15-.22a32.37,32.37,0,0,0-10.86,2,37.56,37.56,0,0,0-11.71,6.7,24.69,24.69,0,0,1-10.83,5.61,24.22,24.22,0,0,1-12.78-.44,43.49,43.49,0,0,1-10.74-5.3,46.06,46.06,0,0,0-9-4.6,6.62,6.62,0,0,1-1.7-.71c-2.18-1.65-4.75-2-7.3-2-3.07-.07-6.15.19-9.23.34-3.41.17-6.64,1.19-9.93,2a50.4,50.4,0,0,1-13.39,1.88,37.54,37.54,0,0,1-17.1-4.54,22.37,22.37,0,0,1-3.23-2.35c-2.63-2.14-5.21-4.35-7.85-6.47-4.86-3.91-10.45-5-16.53-4.19a43.58,43.58,0,0,1-9.82.45A22.49,22.49,0,0,1,94.23,217a11.74,11.74,0,0,1-2.43-3.13,15.9,15.9,0,0,1-2-12.72,24.74,24.74,0,0,1,5.14-9.8c.46.41.78.65,1,.94,4,4.71,9.14,6.39,15.15,5.82,1.63-.15,3.26-.39,4.9-.55a5.33,5.33,0,0,1,1.49.08c5.79,1.09,11-.44,15.82-3.56a5.94,5.94,0,0,0,3-4.77c.26-3.59.7-7.16,1-10.75.14-1.63.14-3.27.22-5.15.66.15,1.12.25,1.57.37a4,4,0,0,1,.57.24c6,2.4,5.55,2.59,12.66.1,1.53-.54,3-1.27,4.67-2,.46,3.61.94,7,1.28,10.33a118.29,118.29,0,0,0,1.84,13.12,6,6,0,0,1-.13,3.63c-.8,2,0,3.63,1.34,5a16.85,16.85,0,0,0,7.31,4.43,83.45,83.45,0,0,0,8.67,2.08c5.77,1,11.58,1.64,17.43,2.1a144.32,144.32,0,0,0,17.88.37c8.11-.38,16.2-1.15,23.86-4.21,1.62-.64,3.24-1.29,4.81-2.05a5.56,5.56,0,0,0,3.11-3.64,3.05,3.05,0,0,0,.15-1.79c-.64-1.28-.14-2.37.21-3.56q3.41-11.69,6.77-23.38c.13-.46.32-.92.5-1.4.46.06.82,0,1,.16a10.8,10.8,0,0,1,4.94,7.48,58.67,58.67,0,0,0,.94,6.08,16.49,16.49,0,0,0,1.77,4.57,27,27,0,0,0,17.05,12.77,13.47,13.47,0,0,0,4.57.17c2.86-.3,5.71-.75,8.53-1.29,4.08-.79,7.19.89,9.93,3.64a13.53,13.53,0,0,0,1.46,1.56,2.29,2.29,0,0,0,3.7-1.6,7.55,7.55,0,0,0-.45-3.31,29.29,29.29,0,0,0-2.82-5.45,49.6,49.6,0,0,0-17.61-15.61,28.16,28.16,0,0,0-8.69-3,15.12,15.12,0,0,1-3.26-.89,49.28,49.28,0,0,1-9.54-5,23.46,23.46,0,0,1-5.57-5.47c.44-.19.69-.41.9-.38a44,44,0,0,1,5.14,1c7.18,2.13,14.36,4.26,21.12,7.6a42.58,42.58,0,0,1,8.38,5.15c1,.85,2.08,1.69,3.14,2.5,7.63,5.88,11.78,13.81,13.6,23.11.43,2.22.73,4.46,1.07,6.7.52,3.35-.38,6.51-1.36,9.65A37.69,37.69,0,0,1,306.25,231.12Z"/><path class="a4c02ce2-66e6-4cde-b255-d195e147bade" d="M307.06,237.35a30.37,30.37,0,0,1-1.33,3.25c-3.37,7.06-9.17,12.58-15.62,16.85-18,11.93-37.8,14.58-58.86,17.22a210.7,210.7,0,0,1-33.41,1.39,473.83,473.83,0,0,1-58.42-5.66c-12.86-2-22.73-5.68-33.72-12.95-6.44-4.27-12.24-9.79-15.62-16.85A33.52,33.52,0,0,1,88,218.06q.36.52.75,1c5.13,6.58,14.77,8.84,22.77,8.33,2.14-.13,4.29-.45,6.42-.74a15.06,15.06,0,0,1,11.85,3.19,68.84,68.84,0,0,1,6.21,5.06c4.07,4.06,9.11,6.26,14.47,7.85a41,41,0,0,0,15.58,1.33,67.83,67.83,0,0,0,12.35-2.52,54.35,54.35,0,0,1,12.8-1.67,18.69,18.69,0,0,1,7.79,1.61,54.51,54.51,0,0,1,9.6,4.88,52.18,52.18,0,0,0,12.11,6c9,2.92,17.43,1.43,25.33-3.57A26.54,26.54,0,0,0,249,246.6a34.12,34.12,0,0,1,8.08-5,27.42,27.42,0,0,1,8.86-2.35c8-.85,15.78.21,23.54,1.88a13.8,13.8,0,0,1,2,.65c4.56,1.81,8.6-.42,12.51-2.32A13.55,13.55,0,0,0,307.06,237.35Z"/><path class="a7de85b1-070b-4447-9307-c23276c584b9" d="M126.59,185.11c-1.2-.28-2.41-.54-3.62-.71a16.12,16.12,0,0,1-6.83-2.64c-1.44-.95-3-1.78-4.54-2.72-1-4-2.55-12.39-2.5-14.11a7.79,7.79,0,0,1,6.92-1.26,37.73,37.73,0,0,0,9.39,1.57c2.46,0,4.92.13,7.29-.69.47,2.66-.61,18.6-1.69,25.47a5.32,5.32,0,0,1-3.32,1.51c.37-.72.63-1.34,1-1.89A3,3,0,0,0,126.59,185.11Z"/><path class="bd2bf9c3-8255-419a-81ba-b582d8db823b" d="M138,166.55c2.68-1.26,12.22-3.21,15.24-3.17a5,5,0,0,1-.84,1.18A19.91,19.91,0,0,1,143.9,168,8.22,8.22,0,0,1,138,166.55Z"/><path class="bda42324-b3d9-454c-9939-627f78742a6e" d="M160.79,134.22a6,6,0,0,1,.19-1,14.68,14.68,0,0,1,2-.62,98.15,98.15,0,0,0,17.38-5.19,48.74,48.74,0,0,0,14.86-9.21c.22-.2.49-.35.92-.66a8.55,8.55,0,0,1,1.64,1.1c.92,1,1.69,2.08,2.59,3.06a38.45,38.45,0,0,0,12.85,8.87,11.24,11.24,0,0,0,6,.78,6,6,0,0,0,5.12-3.9,16.15,16.15,0,0,0,.71-2.67,19.77,19.77,0,0,1,2.19-6.2,49.29,49.29,0,0,0,10.49,8c3.73,2,7.82,3,12,4.44a8.85,8.85,0,0,1,.43,2v2.92c-1.32,0-2.6-.41-3.9-.4-1.09,0-2.17.18-3.28.16-2.75-.07-5.5-.23-8.24-.4s-5.35-.28-8-.43-5.34-.37-8-.45c-9.23-.28-18.33-.28-27.56,0-2.67.08-5.34.3-8,.45s-5.35.27-8,.43-5.45.33-8.19.4c-2,0-4.08,0-6.12,0Z"/><path class="bda42324-b3d9-454c-9939-627f78742a6e" d="M167.29,157.93a8.86,8.86,0,0,0,7.64,5.34,50.94,50.94,0,0,0,15.28-.79,5.27,5.27,0,0,0,3.26-1.9,40.62,40.62,0,0,0,2.75-4,33.32,33.32,0,0,0,1.9-4.11,6.3,6.3,0,0,1,4.27-3.8,8.49,8.49,0,0,1,5,0,6.3,6.3,0,0,1,4.27,3.8,33.32,33.32,0,0,0,1.9,4.11,40.62,40.62,0,0,0,2.75,4,5.27,5.27,0,0,0,3.26,1.9,50.94,50.94,0,0,0,15.28.79,8.86,8.86,0,0,0,7.64-5.34c1.12-2.56,2.1-5.17,3.13-7.76.79-2,1-4.34,3.42-4.74a6.77,6.77,0,0,1,1-.05c0,1.61-.07,3.22-.15,4.83-.2,4.4-.74,8.81-1.38,13.18a108.8,108.8,0,0,1-2.21,10.86c-1.28,5-2.78,9.88-4.21,14.82-.48,1.67-1,3.35-1.53,5-.69,2-1.44,4.06-2.16,6.09-.34,1-.67,1.93-1,3a39.26,39.26,0,0,1-10.38,3.4,104.51,104.51,0,0,1-23,1.79c-10.37-.4-20.72-1.14-30.86-3.6a19.67,19.67,0,0,1-6.39-2.38c-.12-.88-.18-1.79-.36-2.67s-.56-1.77-.74-2.67c-.61-3.12-1.33-6.24-1.72-9.39-.86-6.83-1.58-13.68-2.28-20.53-.38-3.7-.75-7.27-.77-11s0-7.46,0-11.18c2.06,1,2.54,3.28,3.32,5.22C165.19,152.76,166.17,155.37,167.29,157.93Z"/><path class="b8a17a27-17af-401d-a029-d309580e8de2" d="M204.75,79.86c.58-.43,1.15-1.16.84-1.81s-1.16-.67-1.8-1c-2.22-1-.65-4.71-.42-6.46,1.76-.87,3.52-1.68,5.21-2.6a50,50,0,0,0,9.77-7A9.82,9.82,0,0,1,222,58.81a2.05,2.05,0,0,1,2.67.8,7.53,7.53,0,0,1,1,2.22,18.46,18.46,0,0,1-1.07,12.38,36.92,36.92,0,0,1-4.7,7.48c-.6.73-1.52,2.39-.69,3.18.59.57,2.17.2,2.82-.07,1.92-.79,3.35-2.32,5.36-3a17.92,17.92,0,0,1,5.87-.72c3.48,0,6.31,4.93,5,7.68a14.58,14.58,0,0,1-1.35,2.41,31.67,31.67,0,0,1-7.87,7c-.6.41-1.26.73-1.82,1.19a2.67,2.67,0,0,0-1.07,1.83.93.93,0,0,0,.24.74.86.86,0,0,0,.36.2,4.9,4.9,0,0,0,3-.1,21.9,21.9,0,0,1,2.92-.82c3.88-.56,7.05-.5,10.56,1.55A24.84,24.84,0,0,1,255.6,120a28.15,28.15,0,0,1,.31,7.09c-1.24-.25-2-.36-2.82-.58-3.16-.91-6.37-1.68-9.43-2.83a32.7,32.7,0,0,1-14-10.27c-.19-.23-.3-.54-.51-.77a2.18,2.18,0,0,0-3-.36,8.83,8.83,0,0,0-1.66,1.79,25.58,25.58,0,0,0-4.26,9.5,4.54,4.54,0,0,1-1.1,2.63,5.94,5.94,0,0,1-4.35-.45c-4.59-2.2-8.79-4.91-12-9a50.6,50.6,0,0,1-4.84-7.11,5.89,5.89,0,0,0-2.22-2.75,1.59,1.59,0,0,0-1.54,0,2.09,2.09,0,0,0-.63,1.82,19,19,0,0,1,0,2.5c-.24,2-1.68,3.34-3.17,4.54A46.68,46.68,0,0,1,175,124c-2.83.88-5.67,1.79-8.51,2.66a36.41,36.41,0,0,1-8.79,1.47,5.44,5.44,0,0,1-3.41-.52,8.7,8.7,0,0,1,0-1.69,27.47,27.47,0,0,1,2.88-7.45c1.92-3.61,4.73-10.19,9.31-10.67a23.93,23.93,0,0,1,3.59.06,32.9,32.9,0,0,0,5.87-.26,3.68,3.68,0,0,0,1.73-.55,1.35,1.35,0,0,0,.51-1.61,2,2,0,0,0-1.55-.79c-4-.63-7.23-.83-10.41-3.4a7.31,7.31,0,0,1-2.32-8.92,20.64,20.64,0,0,1,8.82-9.6,32.24,32.24,0,0,1,4.81-2c2.19-.76,4.42-1.32,6.61-2,1.21-.41,2.27-1.25,3.53-1.53s3.16.76,1.47,2a3.11,3.11,0,0,0-.51.36c-1.9,2,3.37,2.6,4,2.63a35.59,35.59,0,0,0,6.28,0A12.22,12.22,0,0,0,204.75,79.86Z"/><path class="bc17292a-cf84-465c-ac4c-6f46d815d5c3" d="M75.63,211.9c-3.51,4.16-4.42,10.39-3.27,15.61a12,12,0,0,0,3.15,6,1.87,1.87,0,0,0,1.09.62A1.37,1.37,0,0,0,77.87,233c.27-1.29-.43-3.23-.49-4.6-.08-1.76-.16-3.53-.13-5.29,0-3.28.35-6.74,1.86-9.71.43-.84,1.08-1.8.64-2.64a1.57,1.57,0,0,0-1.7-.69,3.44,3.44,0,0,0-1.65,1C76.13,211.33,75.88,211.61,75.63,211.9Z"/><path class="bc17292a-cf84-465c-ac4c-6f46d815d5c3" d="M75.11,204.53a7.88,7.88,0,0,0-3.3,3.17,4.46,4.46,0,0,0-.09,3.68.6.6,0,0,0,.14.26.59.59,0,0,0,.82-.14,5.8,5.8,0,0,0,.43-.82c1.25-2.22,4.27-1.62,4.8-4.91a1.52,1.52,0,0,0-.66-1.59,2,2,0,0,0-1.63.12C75.44,204.37,75.27,204.45,75.11,204.53Z"/><path class="bc17292a-cf84-465c-ac4c-6f46d815d5c3" d="M328.08,212a11.19,11.19,0,0,0-1.32-1.68,1.9,1.9,0,0,0-.91-.54.71.71,0,0,0-.83.51,1.12,1.12,0,0,0,.22.67,18.62,18.62,0,0,1,2.13,4.79,6.81,6.81,0,0,0,.3,1.28c.64,1.59,2.33.84,2.39-.57S328.88,213.18,328.08,212Z"/><path class="bc17292a-cf84-465c-ac4c-6f46d815d5c3" d="M325.05,240.51a73.63,73.63,0,0,1-4.88,6.78c-.92,1.13-7.25,6.53-6.11,7.86.35.42,1,.36,1.54.24,5.41-1.27,9.55-5.88,11.66-11,.83-2,1.39-4.29.64-6.32a.85.85,0,0,0-.27-.42c-.4-.28-.9.2-1.15.62C326,239,325.54,239.76,325.05,240.51Z"/><path class="bc17292a-cf84-465c-ac4c-6f46d815d5c3" d="M86.1,256.49a75.8,75.8,0,0,1-5.1-6.63c-.81-1.21-4.16-8.82-5.76-8.12-.51.22-.64.86-.68,1.41-.34,5.55,2.88,10.84,7.2,14.34,1.68,1.37,3.71,2.56,5.87,2.43a1,1,0,0,0,.48-.14c.38-.3.07-.92-.26-1.28Z"/><path class="bc17292a-cf84-465c-ac4c-6f46d815d5c3" d="M321.74,238.81c3.92-3.94,5.37-10.19,4.64-15.6a12.11,12.11,0,0,0-2.7-6.35,1.81,1.81,0,0,0-1.05-.72,1.39,1.39,0,0,0-1.39,1.05c-.39,1.29.16,3.31.11,4.71-.06,1.8-.13,3.61-.31,5.4-.33,3.33-.93,6.82-2.72,9.71-.5.82-1.24,1.74-.86,2.63a1.6,1.6,0,0,0,1.66.85,3.47,3.47,0,0,0,1.77-.89C321.18,239.35,321.47,239.08,321.74,238.81Z"/><path class="a5651e23-42f3-410f-a200-96451325d493" d="M106.54,183.31c1.77.47,4.16.86,5.7,1.82a44,44,0,0,0,4.47,2.67,50.72,50.72,0,0,0,5.11,1.76,6.22,6.22,0,0,1-1.08.91,23.29,23.29,0,0,1-12.47,2.68,11.47,11.47,0,0,1-9-5.23,8.41,8.41,0,0,1-.08-8.92,10.83,10.83,0,0,1,2.57-2.95c.29-.23,3.46-2.16,3.47-2.13l.7,3.12c.2.89.92,2.16.59,3.07-.62,1.67-1.71-1.6-2.26.09S105.16,183,106.54,183.31Z"/><path class="a87b7be3-9d63-4d63-befa-2451cdee362e" d="M125.3,185.75c-1.19-.28-2.4-.53-3.62-.7a16.38,16.38,0,0,1-6.83-2.64c-1.44-1-3-1.79-4.54-2.73-1-4-2.54-12.38-2.5-14.11a7.84,7.84,0,0,1,6.93-1.26,37.66,37.66,0,0,0,9.39,1.57c2.45,0,4.91.14,7.29-.69.46,2.66-.62,18.61-1.7,25.48a5.36,5.36,0,0,1-3.31,1.5c.37-.72.62-1.33,1-1.88A3,3,0,0,0,125.3,185.75Z"/><path class="bf82d6af-ac22-42f7-9252-63fe846ef76c" d="M126.15,160.27A70.32,70.32,0,0,1,118,159a13.25,13.25,0,0,0-9.55.89,3.49,3.49,0,0,1-.77.17c-.19-.32-.36-.48-.39-.67-.21-1-.39-2-.59-3.07a6.93,6.93,0,0,1,3.85-.9c3.58-.23,7.17-.41,10.75-.62,2.66-.17,5.32-.4,8-.53,1.52-.08,3.05,0,4.78,0,.32,1.34-.2,2.56-.26,3.62A9.14,9.14,0,0,1,126.15,160.27Z"/><path class="b1d755c2-3388-448b-8562-19028a634514" d="M163.36,136.15a6.28,6.28,0,0,1,.19-1,16.23,16.23,0,0,1,2-.61,99,99,0,0,0,17.38-5.19,48.62,48.62,0,0,0,14.86-9.21c.23-.2.49-.35.92-.66a8.11,8.11,0,0,1,1.64,1.1c.92,1,1.69,2.08,2.59,3.06a38.39,38.39,0,0,0,12.86,8.87,11.19,11.19,0,0,0,6,.78,6,6,0,0,0,5.12-3.91,15.64,15.64,0,0,0,.71-2.67,19.81,19.81,0,0,1,2.19-6.19,50.14,50.14,0,0,0,10.49,7.95c3.73,2,7.82,3.05,12,4.44a9.43,9.43,0,0,1,.42,2v2.92c-1.31,0-2.6-.41-3.9-.4-1.08,0-2.17.18-3.27.16-2.76-.07-5.5-.23-8.25-.4s-5.35-.28-8-.43-5.34-.37-8-.45c-9.23-.28-18.32-.28-27.56,0-2.67.08-5.34.3-8,.45s-5.34.27-8,.43-5.46.33-8.2.39c-2,.05-4.08,0-6.11,0C163.36,137.1,163.36,136.62,163.36,136.15Z"/><path class="b1d755c2-3388-448b-8562-19028a634514" d="M163.51,160.09c0-.67,0-1.35,0-2,0-2.07-1.23-10,.17-11.42,2.3-2.28,7.56,1.85,8.85,3.52,2.13,2.76,3.13,6.2,4.52,9.39a4.36,4.36,0,0,0,1.09,1.69c1.08.91,2.69.66,4.07.36l7.26-1.58a6.11,6.11,0,0,0,1.62-.51,5.81,5.81,0,0,0,2.09-2.25c3.35-5.4,5.61-12.27,11.44-14.78a2.4,2.4,0,0,1,1.16-.26,3,3,0,0,1,1.05.45,10.58,10.58,0,0,0,3.9,1.26c2.36.28,3.56,7.06,4.41,8.62,1.44,2.62,4.68,2.94,7.47,1.6,2.49-1.2,4.31-3.41,6-5.57s3.53-4.37,6-5.62c2.76-1.39,6-1.38,9.08-1.34,2.46,0,5.07.11,7.14,1.46,3.36,2.2,1.85,5.83,1.7,9.06-.2,4.4-.74,8.81-1.38,13.18a108.8,108.8,0,0,1-2.21,10.86c-1.28,5-2.78,9.88-4.2,14.82-.49,1.67-1,3.35-1.54,5-.68,2-1.44,4.06-2.15,6.09-.34,1-.68,1.93-1.06,3a39.07,39.07,0,0,1-10.37,3.4,104.6,104.6,0,0,1-23,1.79c-10.38-.4-20.73-1.15-30.87-3.6a19.67,19.67,0,0,1-6.39-2.38c-.11-.88-.18-1.79-.36-2.67s-.56-1.77-.74-2.67c-.61-3.12-1.32-6.24-1.72-9.39-.86-6.83-1.58-13.68-2.28-20.53C163.92,166,163.62,163.11,163.51,160.09Z"/><path class="a5651e23-42f3-410f-a200-96451325d493" d="M207.32,81.79c.58-.44,1.15-1.16.84-1.82s-1.16-.66-1.8-.94c-2.22-1-.64-4.71-.42-6.46,1.76-.87,3.52-1.68,5.21-2.6a49.71,49.71,0,0,0,9.77-7,9.82,9.82,0,0,1,3.63-2.27,2,2,0,0,1,2.67.8,7.53,7.53,0,0,1,1,2.22,18.52,18.52,0,0,1-1.06,12.38,37.7,37.7,0,0,1-4.71,7.48c-.6.73-1.51,2.39-.69,3.18.59.57,2.17.2,2.82-.07,1.92-.79,3.35-2.32,5.37-3a17.89,17.89,0,0,1,5.87-.72c3.47,0,6.3,4.93,5,7.68a14.58,14.58,0,0,1-1.35,2.41,31.87,31.87,0,0,1-7.87,7c-.6.41-1.26.73-1.82,1.19a2.67,2.67,0,0,0-1.07,1.83.93.93,0,0,0,.24.74,1.11,1.11,0,0,0,.37.2,4.9,4.9,0,0,0,3-.1,21.35,21.35,0,0,1,2.91-.82c3.88-.56,7.05-.5,10.56,1.55a24.84,24.84,0,0,1,12.38,17.21,28.15,28.15,0,0,1,.31,7.09c-1.23-.25-2-.36-2.82-.59-3.15-.9-6.36-1.67-9.43-2.82a32.78,32.78,0,0,1-14-10.27c-.19-.23-.3-.54-.5-.77a2.18,2.18,0,0,0-3-.36A8.36,8.36,0,0,0,227,116a25.58,25.58,0,0,0-4.26,9.5,4.54,4.54,0,0,1-1.1,2.63,5.89,5.89,0,0,1-4.35-.46c-4.59-2.19-8.79-4.9-12-9a49,49,0,0,1-4.84-7.11,5.91,5.91,0,0,0-2.23-2.75,1.57,1.57,0,0,0-1.53,0,2.06,2.06,0,0,0-.64,1.82,17.39,17.39,0,0,1,0,2.5c-.24,2-1.67,3.34-3.17,4.54a46.43,46.43,0,0,1-15.35,8.3c-2.84.89-5.68,1.8-8.52,2.67a36.41,36.41,0,0,1-8.79,1.47,5.4,5.4,0,0,1-3.4-.52,8.69,8.69,0,0,1,0-1.69,27.47,27.47,0,0,1,2.88-7.45c1.92-3.61,4.73-10.19,9.31-10.67a25.33,25.33,0,0,1,3.59.05,33,33,0,0,0,5.88-.25,3.68,3.68,0,0,0,1.72-.55,1.35,1.35,0,0,0,.51-1.61,2,2,0,0,0-1.54-.8c-4-.62-7.24-.82-10.42-3.39a7.33,7.33,0,0,1-2.32-8.92,20.69,20.69,0,0,1,8.82-9.6,33,33,0,0,1,4.82-2c2.18-.75,4.42-1.31,6.61-2,1.21-.4,2.27-1.24,3.52-1.52s3.16.76,1.47,2a3.61,3.61,0,0,0-.51.36c-1.9,2,3.37,2.6,4,2.63a36.69,36.69,0,0,0,6.29-.05A12.18,12.18,0,0,0,207.32,81.79Z"/><path class="a87e2b7c-9392-4a38-928e-430fe620224c" d="M204.65,185.94a6.06,6.06,0,0,1-4.92-1.18,39.3,39.3,0,0,1-3.31-3.15,4.8,4.8,0,0,1-.56-1.31c3-.09,5.66-.07,8.3-.28s5.19-.66,8-1C210.82,182.74,208.62,185.3,204.65,185.94Z"/><path class="e9a3ec68-7640-4ab9-b9cc-65dcec1d8754" d="M195.44,170.89a43.47,43.47,0,0,0,17.43-.76c.06,1.18.11,2,.15,2.69-3.53,2.3-12.23,3.19-17.89,1.86A4.33,4.33,0,0,1,195.44,170.89Z"/><path class="a8cdf9a9-0896-48ff-8f23-9d4b063e8395" d="M166,141c2.62-.23,5.27-.54,7.94-.69,10.44-.58,20.92-1.3,31.38-1.52,10.11-.2,20.47,1,30.58,1.52,2.67.15,5.32.46,7.94.69.07.34.21.59.14.75-1.84,4.27-3.82,8.49-5.52,12.81-1.07,2.7-3,3.7-5.66,3.81a45.81,45.81,0,0,1-5.24-.07c-2.43-.17-4.85-.48-7.31-.74a9.33,9.33,0,0,1-2.41-3.73c-.4-1-.82-1.93-1.18-2.91a11.85,11.85,0,0,0-6.87-7,9.28,9.28,0,0,0-2.86-.7,1.69,1.69,0,0,0-.38-.07h-3.26a1.69,1.69,0,0,0-.38.07,9.28,9.28,0,0,0-2.86.7,11.85,11.85,0,0,0-6.87,7c-.36,1-.78,1.94-1.18,2.91a9.33,9.33,0,0,1-2.41,3.73c-2.46.26-4.88.57-7.31.74a45.81,45.81,0,0,1-5.24.07c-2.63-.11-4.59-1.11-5.66-3.81-1.7-4.32-3.68-8.54-5.52-12.81C165.78,141.63,165.92,141.38,166,141Z"/><path class="a5651e23-42f3-410f-a200-96451325d493" d="M281.41,191.29a2.25,2.25,0,0,0-1-1l-6.86-4.37a2.59,2.59,0,0,1-1-.91c-1.17-2.24,4.93-.2,5.72.06a37.52,37.52,0,0,1,7,3.25A32.83,32.83,0,0,1,295.83,198a40.69,40.69,0,0,0-11.68,1.14c-5.72,1.27-10.25-1.14-14.41-4.55a26.84,26.84,0,0,1-4.06-4.62c-.55-.71-3.4-5.79-.5-5a3.09,3.09,0,0,1,1.2.8,19.87,19.87,0,0,0,5.51,4.16c2.66,1.13,5.77,1,8.35,2.27a1.26,1.26,0,0,0,.65.19C281.36,192.36,281.59,191.73,281.41,191.29Z"/><path class="a5651e23-42f3-410f-a200-96451325d493" d="M188.7,59.06c2.06-2.47,4.93-2.81,7.8-3.11,1.73,3.66,2.21,14.29.94,20.38h-2.33c-.63-3.09-.59-6.23-2-9S190.25,61.94,188.7,59.06Z"/><path class="ab70bafb-29f1-4bd0-90b1-315a0b3a4ed1" d="M241.46,213.05a2.16,2.16,0,0,0-2,1.12,2.87,2.87,0,0,0-.37.84c-.58,2.18-1.16,4.35-1.69,6.54a3.39,3.39,0,0,0,0,1.52,2.11,2.11,0,0,0,3.17,1.28,2,2,0,0,0,.81-.87c.81-2.53,1.59-5.08,2.3-7.64a2.72,2.72,0,0,0-.15-1.24A2.3,2.3,0,0,0,241.46,213.05Z"/><path class="bc4bf851-ca06-4270-9649-f739a4f5a65d" d="M257.27,220.44c-1.54,1-3,2.17-4.47,3.28a11.47,11.47,0,0,0-1.42,1.17,2,2,0,0,0-.14,2.55,2,2,0,0,0,2.42.86,23.58,23.58,0,0,0,6.82-4.67,5.75,5.75,0,0,0,.67-1.27,7.48,7.48,0,0,0-.82-1.78C259.6,219.67,258.55,219.6,257.27,220.44Z"/><path class="b1caebae-08fe-474d-b303-a34db5c08c71" d="M212.31,230.9c-1.91-1.52-3.87-3-5.89-4.35a2.5,2.5,0,0,0-1.76-.13,2,2,0,0,0-.92,3.39c1.78,1.65,3.77,3.08,5.68,4.59a1.7,1.7,0,0,0,.55.24,2.33,2.33,0,0,0,3-2.4C212.82,232,212.72,231.23,212.31,230.9Z"/><path class="b1caebae-08fe-474d-b303-a34db5c08c71" d="M277.45,219.47a1.93,1.93,0,0,0-.6-.1,2.17,2.17,0,0,0-2.34,1.07,2.1,2.1,0,0,0,.59,2.73c1.59,1.1,3.24,2.11,4.9,3.09a3,3,0,0,0,2.66.2,2.39,2.39,0,0,0,1.39-2.65c-.18-.25-.37-.82-.76-1.05C281.37,221.61,279.4,220.55,277.45,219.47Z"/><path class="b9b87b19-bb6d-476c-8811-56e260a48366" d="M160.31,219.79c-.37,0-1.06-.26-1.54,0a62,62,0,0,0-5.74,2.93,2.23,2.23,0,0,0,2,4,53,53,0,0,0,5.89-3.29C162,222.6,161.72,220.64,160.31,219.79Z"/><path class="bc4bf851-ca06-4270-9649-f739a4f5a65d" d="M203.4,218.73a8.07,8.07,0,0,0-.77-1.72,1.6,1.6,0,0,0-2.19-.5,15.51,15.51,0,0,0-5.36,5.29,1.88,1.88,0,0,0,.34,2.27,2.3,2.3,0,0,0,2.23.66,2.14,2.14,0,0,0,1.09-.52c1.37-1.36,2.7-2.75,4-4.17A5.44,5.44,0,0,0,203.4,218.73Z"/><path class="e9a3ec68-7640-4ab9-b9cc-65dcec1d8754" d="M273.17,206.72a3.65,3.65,0,0,0-2,.51,39.64,39.64,0,0,0-4.17,3.59,2.12,2.12,0,0,0-.17,3,2.09,2.09,0,0,0,3,.25c1.48-1.08,2.93-2.22,4.3-3.44a4.59,4.59,0,0,0,.83-1.5C275,207.67,274.25,206.71,273.17,206.72Z"/><path class="bc4bf851-ca06-4270-9649-f739a4f5a65d" d="M142.12,215.1a2.09,2.09,0,0,0-2.82,0c-1.44,1.45-2.77,3-4.09,4.6a2.11,2.11,0,0,0-.32,1.17,2.24,2.24,0,0,0,2.36,2.28,4.55,4.55,0,0,0,1.6-.79,50.07,50.07,0,0,0,3.7-4.53A2,2,0,0,0,142.12,215.1Z"/><path class="e9a3ec68-7640-4ab9-b9cc-65dcec1d8754" d="M225,218.52a1.75,1.75,0,0,0-1.87-.79c-2,.67-4,1.47-6,2.23a1.71,1.71,0,0,0-.45.41,2.16,2.16,0,0,0,2,3.69c1.66-.52,3.31-1.1,4.91-1.78a5.31,5.31,0,0,0,1.36-1.1A2.42,2.42,0,0,0,225,218.52Z"/><path class="ab70bafb-29f1-4bd0-90b1-315a0b3a4ed1" d="M172.56,216.31a3,3,0,0,0-.6-.12,2.35,2.35,0,0,0-2,1.2,1.81,1.81,0,0,0,.25,2.27,52.2,52.2,0,0,0,4.48,3.63,2,2,0,0,0,1.44.21,2.07,2.07,0,0,0,1.49-3A9.77,9.77,0,0,0,172.56,216.31Z"/><path class="e9a3ec68-7640-4ab9-b9cc-65dcec1d8754" d="M186.58,224.15a11.8,11.8,0,0,0-4.88,3.58,2.06,2.06,0,0,0,.07,2.79,2.1,2.1,0,0,0,2.77.42,36.25,36.25,0,0,0,3.92-2.92,4.37,4.37,0,0,0,.86-1.5C189.33,224.72,187.93,223.65,186.58,224.15Z"/><path class="b1caebae-08fe-474d-b303-a34db5c08c71" d="M154.28,183.85a49,49,0,0,0-3.87-3.48,1.93,1.93,0,0,0-2.53.21,2.13,2.13,0,0,0-.51,2.52,9.8,9.8,0,0,0,4.33,4.19c1.46.64,3-.45,3-2.27C154.63,184.77,154.6,184.16,154.28,183.85Z"/><path class="b1caebae-08fe-474d-b303-a34db5c08c71" d="M254,198.55a3.77,3.77,0,0,0-1.15-.48c-1.85-.1-3,1.49-2.28,2.93a9.36,9.36,0,0,0,3.89,3.82,1.89,1.89,0,0,0,.6.16,2.29,2.29,0,0,0,2.64-1.06,2.05,2.05,0,0,0-.46-2.53A41.66,41.66,0,0,0,254,198.55Z"/><path class="b9b87b19-bb6d-476c-8811-56e260a48366" d="M289.48,210.73a1.88,1.88,0,0,0-1.2,2A8.46,8.46,0,0,0,291,218a1.93,1.93,0,0,0,2.31.11c.78-.45,1.15-1.13,1.11-2.52-.74-1.29-1.32-3.17-2.68-4.6A1.91,1.91,0,0,0,289.48,210.73Z"/><path class="b9b87b19-bb6d-476c-8811-56e260a48366" d="M230.35,230.42a3,3,0,0,0-1.12-.5c-1.83-.06-3.1,1.58-2.3,2.87a21.68,21.68,0,0,0,3.26,4,2.09,2.09,0,0,0,3-.2,2,2,0,0,0,.22-2.77A34.84,34.84,0,0,0,230.35,230.42Z"/><path class="b9b87b19-bb6d-476c-8811-56e260a48366" d="M128.78,201.71a1.91,1.91,0,0,0-2.19.76,2.12,2.12,0,0,0,0,2.59,25.13,25.13,0,0,0,4.14,3.15c1.35.76,3-.44,3-2.21a2.13,2.13,0,0,0-.28-1A10.91,10.91,0,0,0,128.78,201.71Z"/><path class="e9a3ec68-7640-4ab9-b9cc-65dcec1d8754" d="M155,209.75c-.35-1.27-.84-2.5-1.3-3.74a3.15,3.15,0,0,0-.48-.78,2.4,2.4,0,0,0-2.75-.67,1.93,1.93,0,0,0-1.17,2.51,35.94,35.94,0,0,0,1.91,4.79,1.76,1.76,0,0,0,2.09.9,7.33,7.33,0,0,0,1.7-1A7.58,7.58,0,0,0,155,209.75Z"/><path class="ab70bafb-29f1-4bd0-90b1-315a0b3a4ed1" d="M146.88,196.47a2.09,2.09,0,0,0-.25-3,2.29,2.29,0,0,0-3.07.19,16.7,16.7,0,0,0-2.22,2.54,6.21,6.21,0,0,0-.65,1.66,2.41,2.41,0,0,0,1.23,2.32,1.82,1.82,0,0,0,2.27-.35A33.18,33.18,0,0,0,146.88,196.47Z"/><path class="b1caebae-08fe-474d-b303-a34db5c08c71" d="M113.78,204.76a5.86,5.86,0,0,0-3.34,3,2.14,2.14,0,0,0,2.14,2.9c1.29-.12,3.79-2.21,4.09-3.43a2.93,2.93,0,0,0,0-.59A2.21,2.21,0,0,0,113.78,204.76Z"/><path class="ab70bafb-29f1-4bd0-90b1-315a0b3a4ed1" d="M97.57,199.66a2.06,2.06,0,0,0-2.17.83,1.87,1.87,0,0,0-.12,2.29,10.48,10.48,0,0,0,1.77,2.09,1.85,1.85,0,0,0,2.3.09,5.23,5.23,0,0,0,1.07-1.34C100.49,201.81,99,199.88,97.57,199.66Z"/><path class="acab44a5-15a1-46d0-96e8-078e5d85da50" d="M109.5,215.57c-.55,0-1.1.05-1.65,0a14.79,14.79,0,0,1-10.6-5c-1.25-1.46-2.53-3.33-4.45-3.33a.86.86,0,0,0-.66.22,1,1,0,0,0-.13.71c.51,4.92,4.84,8,9.24,9.44a23.7,23.7,0,0,0,10.43.55c.71-.09,8.25-.69,7.32-2C117.22,213.7,112,215.41,109.5,215.57Z"/><path class="acab44a5-15a1-46d0-96e8-078e5d85da50" d="M307.21,213.73c-.5-2.24-3.83-2-4.36.11-.23.93.46,2.2.48,3.19a20,20,0,0,1-1,5.83,13.1,13.1,0,0,1-4.32,6.69c-.43.33-.93.69-1,1.23a1.28,1.28,0,0,0,1.09,1.33,3.06,3.06,0,0,0,1.84-.34,12.51,12.51,0,0,0,5.87-5.76A18.9,18.9,0,0,0,307.21,213.73Z"/><path class="acab44a5-15a1-46d0-96e8-078e5d85da50" d="M239.38,238.91l-.77.49a17.09,17.09,0,0,1-5.17,1.8,18.24,18.24,0,0,1-9.56-.12c-2.33-.75-4.68-2.09-7.08-1.56-.63.14-1.33.54-1.37,1.18a1.73,1.73,0,0,0,.88,1.33,21.85,21.85,0,0,0,15.9,3.87c6.29-.8,10.48-4.17,15.34-7.94a2.38,2.38,0,0,0,.79-.88,1.46,1.46,0,0,0-.86-1.72,3.13,3.13,0,0,0-2.07,0C243.15,236,241.34,237.61,239.38,238.91Z"/><path class="acab44a5-15a1-46d0-96e8-078e5d85da50" d="M167.7,232.75a49.52,49.52,0,0,1-16.67-2,4.17,4.17,0,0,0-2-.29,1.34,1.34,0,0,0-1.16,1.44,1.91,1.91,0,0,0,.8,1,22.6,22.6,0,0,0,13.84,4.25c4.29-.07,10.46-.37,13.84-3.3a1.27,1.27,0,0,0,.51-.72,1,1,0,0,0-.73-1,2.93,2.93,0,0,0-1.35,0C172.44,232.44,170.08,232.66,167.7,232.75Z"/><path class="bc9929ee-e47e-4905-8ce8-0734fcd1063e" d="M93.63,230.69a1.29,1.29,0,0,0,0,2.58A1.29,1.29,0,0,0,93.63,230.69Z"/><path class="bc9929ee-e47e-4905-8ce8-0734fcd1063e" d="M96.34,231v.24a.64.64,0,0,0,1.28,0V231A.64.64,0,0,0,96.34,231Z"/><path class="bc9929ee-e47e-4905-8ce8-0734fcd1063e" d="M97,235.08a1.93,1.93,0,0,0,0,3.85A1.93,1.93,0,0,0,97,235.08Z"/><path class="bc9929ee-e47e-4905-8ce8-0734fcd1063e" d="M288.4,246.88a1.64,1.64,0,0,0-1.61,1.61v.24a1.61,1.61,0,0,0,3.22,0v-.24A1.63,1.63,0,0,0,288.4,246.88Z"/><path class="bc9929ee-e47e-4905-8ce8-0734fcd1063e" d="M287,252.07a1,1,0,0,0,0,1.93A1,1,0,0,0,287,252.07Z"/><path class="bc9929ee-e47e-4905-8ce8-0734fcd1063e" d="M284.33,246.65a.65.65,0,0,0,0,1.29A.65.65,0,0,0,284.33,246.65Z"/><path class="bc9929ee-e47e-4905-8ce8-0734fcd1063e" d="M286.25,243.38a1.29,1.29,0,0,0,0,2.57A1.29,1.29,0,0,0,286.25,243.38Z"/><path class="bc9929ee-e47e-4905-8ce8-0734fcd1063e" d="M280.74,251.68h-.24a.64.64,0,0,0,0,1.28h.24A.64.64,0,0,0,280.74,251.68Z"/><path class="bc9929ee-e47e-4905-8ce8-0734fcd1063e" d="M173.07,249.52a.65.65,0,0,0,0,1.29A.65.65,0,0,0,173.07,249.52Z"/><path class="bc9929ee-e47e-4905-8ce8-0734fcd1063e" d="M176.18,245.77a1.29,1.29,0,0,0,0,2.57A1.29,1.29,0,0,0,176.18,245.77Z"/><path class="bc9929ee-e47e-4905-8ce8-0734fcd1063e" d="M178.33,250.64a1,1,0,0,0-1,1v.24a1,1,0,0,0,1,1,1,1,0,0,0,1-1v-.24A1,1,0,0,0,178.33,250.64Z"/><path class="bc9929ee-e47e-4905-8ce8-0734fcd1063e" d="M181.92,247a1.29,1.29,0,0,0,0,2.57A1.29,1.29,0,0,0,181.92,247Z"/><path class="bc9929ee-e47e-4905-8ce8-0734fcd1063e" d="M184.07,253c-2.48,0-2.48,3.86,0,3.86A1.93,1.93,0,0,0,184.07,253Z"/><path class="bc9929ee-e47e-4905-8ce8-0734fcd1063e" d="M176.42,256.38a1,1,0,0,0-1,1v.24a1,1,0,1,0,1.93,0v-.24A1,1,0,0,0,176.42,256.38Z"/><path class="bc9929ee-e47e-4905-8ce8-0734fcd1063e" d="M207.28,270.5a1,1,0,0,0,0,1.93A1,1,0,0,0,207.28,270.5Z"/><path class="bc9929ee-e47e-4905-8ce8-0734fcd1063e" d="M211.11,266.91a1,1,0,0,0,0,1.93A1,1,0,0,0,211.11,266.91Z"/><path class="bc9929ee-e47e-4905-8ce8-0734fcd1063e" d="M213.51,271.05a1.61,1.61,0,0,0,0,3.22A1.61,1.61,0,0,0,213.51,271.05Z"/><path class="bc9929ee-e47e-4905-8ce8-0734fcd1063e" d="M218.05,268.26a1.3,1.3,0,0,0-1.28,1.29v.24a1.29,1.29,0,0,0,2.57,0v-.24A1.3,1.3,0,0,0,218.05,268.26Z"/><path class="ab70bafb-29f1-4bd0-90b1-315a0b3a4ed1" d="M256.78,187.56a2.06,2.06,0,0,0-1.38-1.87,1.88,1.88,0,0,0-2.24.49,11.78,11.78,0,0,0-1.55,2.26,1.85,1.85,0,0,0,.53,2.24,5.16,5.16,0,0,0,1.58.68C255.48,191,256.94,189,256.78,187.56Z"/><path class="ae1a6a9d-a789-4399-abe0-48c9f98152d8" d="M200.58,190.66a10.57,10.57,0,0,0,2.42.41c5.45.19,9.42-2.38,12.28-6.82a17.27,17.27,0,0,0,2.64-10.88c-.09-1.22-.13-2.46-.29-3.68a16.19,16.19,0,0,0-.64-3c-.49-1.52-1.5-2-3.1-1.61-1.09.26-2.18.59-3.28.78a35.23,35.23,0,0,1-15.56-.43,3.13,3.13,0,0,0-3.71,1.46,6.87,6.87,0,0,0-.93,2.25,23.48,23.48,0,0,0,0,11.27A15.25,15.25,0,0,0,200.58,190.66Zm4.07-4.72a6.06,6.06,0,0,1-4.92-1.18,39.3,39.3,0,0,1-3.31-3.15,4.8,4.8,0,0,1-.56-1.31c3-.09,5.66-.07,8.3-.28s5.19-.66,8-1C210.82,182.74,208.62,185.3,204.65,185.94Zm-9.21-15.05a43.47,43.47,0,0,0,17.43-.76c.06,1.18.11,2,.15,2.69-3.53,2.3-12.23,3.19-17.89,1.86A4.33,4.33,0,0,1,195.44,170.89Z"/><path class="ae1a6a9d-a789-4399-abe0-48c9f98152d8" d="M339.13,194.69a134.06,134.06,0,0,0-2.74-15.43,97.44,97.44,0,0,0-3.62-11.61c-.39-1.09-.53-2.27-.92-3.36a138.18,138.18,0,0,0-5.71-14.58c-.43-.89-1-1.71-1.41-2.6a106.44,106.44,0,0,0-5.84-11.32,142.53,142.53,0,0,0-9.31-12.64,142.07,142.07,0,0,0-10.42-11.73,141,141,0,0,0-12-10.07,130,130,0,0,0-12.52-9.42,143.7,143.7,0,0,0-28.33-13.26,135.08,135.08,0,0,0-15-4.44L230.12,74c0-.14.07-.28.12-.42a23.5,23.5,0,0,0,.85-10.37,13.52,13.52,0,0,0-2.15-6.36A7,7,0,0,0,220.3,54a14.88,14.88,0,0,0-5.22,3.2,69.45,69.45,0,0,1-9.94,7.28,12.32,12.32,0,0,1-1.81.72c-.21-2.09-.3-3.94-.6-5.75a33.07,33.07,0,0,0-1.25-5.38,4.23,4.23,0,0,0-3.6-3,15.64,15.64,0,0,0-11.83,3.39c-2.48,2-3.37,4.69-1.44,8,.95,1.59,1.94,3.15,2.85,4.76a11.69,11.69,0,0,1,1.64,4l-.43.23c-1.38.12-2.73.26-4,.4a117.72,117.72,0,0,0-13.38,2.36c-1,.23-1.07-.1-2.07.13a140.59,140.59,0,0,0-15.08,4.22,131.46,131.46,0,0,0-14.43,6.06A133.14,133.14,0,0,0,125.86,92a139.77,139.77,0,0,0-12.58,9.33,144.77,144.77,0,0,0-11.77,10.32,140.3,140.3,0,0,0-10.67,11.48A113.5,113.5,0,0,0,83.53,134c-.45.73-.79,1.53-1.25,2.26a147,147,0,0,0-8,13.46A137.45,137.45,0,0,0,68,164.07a123.14,123.14,0,0,0-6.52,30.64,139.61,139.61,0,0,0-.79,15.63A146.7,146.7,0,0,0,61.24,226a138.18,138.18,0,0,0,2.81,15.42c0,.09,0,.13,0,.21a136,136,0,0,0,4.21,14.88,139.14,139.14,0,0,0,6.29,14.34A141.59,141.59,0,0,0,82,284.67a141.19,141.19,0,0,0,9.12,12.72A142.65,142.65,0,0,0,101.57,309a140.69,140.69,0,0,0,11.79,10.27,133.76,133.76,0,0,0,12.56,9.34,137.66,137.66,0,0,0,13.78,7.43,140.52,140.52,0,0,0,14.54,5.75c.09,0,.1,0,.19,0,19.25,6.71,41.15,9.8,61.47,7.53a142.36,142.36,0,0,0,58.64-20.76,144,144,0,0,0,24.52-19.44,142.22,142.22,0,0,0,10.3-11.8,133.36,133.36,0,0,0,9.19-12.68,133.4,133.4,0,0,0,7.29-13.85,135.89,135.89,0,0,0,6-14.41c.25-.7.25-.74.5-1.44a137.09,137.09,0,0,0,6.84-60.29ZM242.05,92.63a10.23,10.23,0,0,0,.78-9.47c-.06-.15-.13-.3-.2-.45l2,.72a119.71,119.71,0,0,1,12.51,5.2,147,147,0,0,1,14.48,8.07,139.78,139.78,0,0,1,12.49,8.43,134.42,134.42,0,0,1,11.19,10.13,132.36,132.36,0,0,1,10.18,11.15,136.27,136.27,0,0,1,9,12.12c2.12,3.36,3.51,7.11,5.31,10.9.43.9,1.2,1.63,1.63,2.53a134.35,134.35,0,0,1,5.45,14c.39,1.11,1,2.13,1.43,3.24.68,1.88,1.31,3.82,1.89,5.76a11.2,11.2,0,0,0-4.36.81c-1.61.66-3.23,1.31-4.79,2.08a7.78,7.78,0,0,1-8.65-.88c-1.24-.9-2.5-1.79-3.8-2.6a7.44,7.44,0,0,0-4.17-1.07,6.33,6.33,0,0,0-.86.06,25.61,25.61,0,0,0-8.24,3.11,59.86,59.86,0,0,0-13.29-7.16A126.09,126.09,0,0,0,257,162.12a5,5,0,0,1-2.85-1c.31-3.22.71-6.38.89-9.55.13-2.2.19-4.41.21-6.62,1.65-.41,3-1.21,3.18-2.81a5.08,5.08,0,0,0-3.3-5.38c-.07-1.48-.13-3-.19-4.39.26-.17.35-.27.43-.28.41,0,.82,0,1.23,0,3.46-.16,4.42-.93,4.49-4.45a41.31,41.31,0,0,0-.59-8.9,29.11,29.11,0,0,0-13.68-19.67,33.87,33.87,0,0,0-3.22-1.8c-1.17-.55-2.4-1-3.72-1.45C240.67,94.65,241.42,93.68,242.05,92.63Zm64.2,138.49c-2.34,4-9.74,6.57-13.85,5.5A78.38,78.38,0,0,0,284,235c-3.05-.45-6.13-.68-9.2-.92-2-.16-4.1-.25-6.15-.22a32.37,32.37,0,0,0-10.86,2,37.56,37.56,0,0,0-11.71,6.7,24.69,24.69,0,0,1-10.83,5.61,24.22,24.22,0,0,1-12.78-.44,43.49,43.49,0,0,1-10.74-5.3,46.06,46.06,0,0,0-9-4.6,6.62,6.62,0,0,1-1.7-.71c-2.18-1.65-4.75-2-7.3-2-3.07-.07-6.15.19-9.23.34-3.41.17-6.64,1.19-9.93,2a50.4,50.4,0,0,1-13.39,1.88,37.54,37.54,0,0,1-17.1-4.54,22.37,22.37,0,0,1-3.23-2.35c-2.63-2.14-5.21-4.35-7.85-6.47-4.86-3.91-10.45-5-16.53-4.19a43.58,43.58,0,0,1-9.82.45A22.49,22.49,0,0,1,94.23,217a11.74,11.74,0,0,1-2.43-3.13,15.9,15.9,0,0,1-2-12.72,24.74,24.74,0,0,1,5.14-9.8c.46.41.78.65,1,.94,4,4.71,9.14,6.39,15.15,5.82,1.63-.15,3.26-.39,4.9-.55a5.33,5.33,0,0,1,1.49.08c5.79,1.09,11-.44,15.82-3.56a5.94,5.94,0,0,0,3-4.77c.26-3.59.7-7.16,1-10.75.14-1.63.14-3.27.22-5.15.66.15,1.12.25,1.57.37a4,4,0,0,1,.57.24c6,2.4,5.55,2.59,12.66.1,1.53-.54,3-1.27,4.67-2,.46,3.61.94,7,1.28,10.33a118.29,118.29,0,0,0,1.84,13.12,6,6,0,0,1-.13,3.63c-.8,2,0,3.63,1.34,5a16.85,16.85,0,0,0,7.31,4.43,83.45,83.45,0,0,0,8.67,2.08c5.77,1,11.58,1.64,17.43,2.1a144.32,144.32,0,0,0,17.88.37c8.11-.38,16.2-1.15,23.86-4.21,1.62-.64,3.24-1.29,4.81-2.05a5.56,5.56,0,0,0,3.11-3.64,3.05,3.05,0,0,0,.15-1.79c-.64-1.28-.14-2.37.21-3.56q3.41-11.69,6.77-23.38c.13-.46.32-.92.5-1.4.46.06.82,0,1,.16a10.8,10.8,0,0,1,4.94,7.48,58.67,58.67,0,0,0,.94,6.08,16.49,16.49,0,0,0,1.77,4.57,27,27,0,0,0,17.05,12.77,13.47,13.47,0,0,0,4.57.17c2.86-.3,5.71-.75,8.53-1.29,4.08-.79,7.19.89,9.93,3.64a13.53,13.53,0,0,0,1.46,1.56,2.29,2.29,0,0,0,3.7-1.6,7.55,7.55,0,0,0-.45-3.31,29.29,29.29,0,0,0-2.82-5.45,49.6,49.6,0,0,0-17.61-15.61,28.16,28.16,0,0,0-8.69-3,15.12,15.12,0,0,1-3.26-.89,49.28,49.28,0,0,1-9.54-5,23.46,23.46,0,0,1-5.57-5.47c.44-.19.69-.41.9-.38a44,44,0,0,1,5.14,1c7.18,2.13,14.36,4.26,21.12,7.6a42.58,42.58,0,0,1,8.38,5.15c1,.85,2.08,1.69,3.14,2.5,7.63,5.88,11.78,13.81,13.6,23.11.43,2.22.73,4.46,1.07,6.7.52,3.35-.38,6.51-1.36,9.65A37.69,37.69,0,0,1,306.25,231.12Zm.81,6.23a30.37,30.37,0,0,1-1.33,3.25c-3.37,7.06-9.17,12.58-15.62,16.85-18,11.93-37.8,14.58-58.86,17.22a210.7,210.7,0,0,1-33.41,1.39,473.83,473.83,0,0,1-58.42-5.66c-12.86-2-22.73-5.68-33.72-12.95-6.44-4.27-12.24-9.79-15.62-16.85A33.52,33.52,0,0,1,88,218.06q.36.52.75,1c5.13,6.58,14.77,8.84,22.77,8.33,2.14-.13,4.29-.45,6.42-.74a15.06,15.06,0,0,1,11.85,3.19,68.84,68.84,0,0,1,6.21,5.06c4.07,4.06,9.11,6.26,14.47,7.85a41,41,0,0,0,15.58,1.33,67.83,67.83,0,0,0,12.35-2.52,54.35,54.35,0,0,1,12.8-1.67,18.69,18.69,0,0,1,7.79,1.61,54.51,54.51,0,0,1,9.6,4.88,52.18,52.18,0,0,0,12.11,6c9,2.92,17.43,1.43,25.33-3.57A26.54,26.54,0,0,0,249,246.6a34.12,34.12,0,0,1,8.08-5,27.42,27.42,0,0,1,8.86-2.35c8-.85,15.78.21,23.54,1.88a13.8,13.8,0,0,1,2,.65c4.56,1.81,8.6-.42,12.51-2.32A13.55,13.55,0,0,0,307.06,237.35Zm-200.52-54c1.77.47,4.16.86,5.7,1.82a44,44,0,0,0,4.47,2.67,50.72,50.72,0,0,0,5.11,1.76,6.22,6.22,0,0,1-1.08.91,23.29,23.29,0,0,1-12.47,2.68,11.47,11.47,0,0,1-9-5.23,8.41,8.41,0,0,1-.08-8.92,10.83,10.83,0,0,1,2.57-2.95c.29-.23,3.46-2.16,3.47-2.13l.7,3.12c.2.89.92,2.16.59,3.07-.62,1.67-1.71-1.6-2.26.09S105.16,183,106.54,183.31Zm20,1.8c-1.2-.28-2.41-.54-3.62-.71a16.12,16.12,0,0,1-6.83-2.64c-1.44-.95-3-1.78-4.54-2.72-1-4-2.55-12.39-2.5-14.11a7.79,7.79,0,0,1,6.92-1.26,37.73,37.73,0,0,0,9.39,1.57c2.46,0,4.92.13,7.29-.69.47,2.66-.61,18.6-1.69,25.47a5.32,5.32,0,0,1-3.32,1.51c.37-.72.63-1.34,1-1.89A3,3,0,0,0,126.59,185.11Zm-.44-24.84-2.87-.35c-.1-1.76-.26-3.51-.48-5.26,2.15-.14,4.3-.32,6.45-.42,1.52-.08,3.05,0,4.78,0,.32,1.34-.2,2.56-.26,3.62A9.14,9.14,0,0,1,126.15,160.27ZM117.9,155c.17,1.36.3,2.72.39,4.09L118,159a13.25,13.25,0,0,0-9.55.89,3.49,3.49,0,0,1-.77.17c-.19-.32-.36-.48-.39-.67-.21-1-.39-2-.59-3.07a6.93,6.93,0,0,1,3.85-.9C113,155.23,115.44,155.1,117.9,155ZM138,166.55c2.68-1.26,12.22-3.21,15.24-3.17a5,5,0,0,1-.84,1.18A19.91,19.91,0,0,1,143.9,168,8.22,8.22,0,0,1,138,166.55Zm29.28-8.62a8.86,8.86,0,0,0,7.64,5.34,50.94,50.94,0,0,0,15.28-.79,5.27,5.27,0,0,0,3.26-1.9,40.62,40.62,0,0,0,2.75-4,33.32,33.32,0,0,0,1.9-4.11,6.3,6.3,0,0,1,4.27-3.8,8.49,8.49,0,0,1,5,0,6.3,6.3,0,0,1,4.27,3.8,33.32,33.32,0,0,0,1.9,4.11,40.62,40.62,0,0,0,2.75,4,5.27,5.27,0,0,0,3.26,1.9,50.94,50.94,0,0,0,15.28.79,8.86,8.86,0,0,0,7.64-5.34c1.12-2.56,2.1-5.17,3.13-7.76.79-2,1-4.34,3.42-4.74a6.77,6.77,0,0,1,1-.05c0,1.61-.07,3.22-.15,4.83-.2,4.4-.74,8.81-1.38,13.18a108.8,108.8,0,0,1-2.21,10.86c-1.28,5-2.78,9.88-4.21,14.82-.48,1.67-1,3.35-1.53,5-.69,2-1.44,4.06-2.16,6.09-.34,1-.67,1.93-1,3a39.26,39.26,0,0,1-10.38,3.4,104.51,104.51,0,0,1-23,1.79c-10.37-.4-20.72-1.14-30.86-3.6a19.67,19.67,0,0,1-6.39-2.38c-.12-.88-.18-1.79-.36-2.67s-.56-1.77-.74-2.67c-.61-3.12-1.33-6.24-1.72-9.39-.86-6.83-1.58-13.68-2.28-20.53-.38-3.7-.75-7.27-.77-11s0-7.46,0-11.18c2.06,1,2.54,3.28,3.32,5.22C165.19,152.76,166.17,155.37,167.29,157.93Zm79-22.47c-1.09,0-2.17.18-3.28.16-2.75-.07-5.5-.23-8.24-.4s-5.35-.28-8-.43-5.34-.37-8-.45c-9.23-.28-18.33-.28-27.56,0-2.67.08-5.34.3-8,.45s-5.35.27-8,.43-5.45.33-8.19.4c-2,0-4.08,0-6.12,0v-1.42a6,6,0,0,1,.19-1,14.68,14.68,0,0,1,2-.62,98.15,98.15,0,0,0,17.38-5.19,48.74,48.74,0,0,0,14.86-9.21c.22-.2.49-.35.92-.66a8.55,8.55,0,0,1,1.64,1.1c.92,1,1.69,2.08,2.59,3.06a38.45,38.45,0,0,0,12.85,8.87,11.24,11.24,0,0,0,6,.78,6,6,0,0,0,5.12-3.9,16.15,16.15,0,0,0,.71-2.67,19.77,19.77,0,0,1,2.19-6.2,49.29,49.29,0,0,0,10.49,8c3.73,2,7.82,3,12,4.44a8.85,8.85,0,0,1,.43,2v2.92C248.82,135.83,247.54,135.45,246.24,135.46Zm35.17,55.83a2.25,2.25,0,0,0-1-1l-6.86-4.37a2.59,2.59,0,0,1-1-.91c-1.17-2.24,4.93-.2,5.72.06a37.52,37.52,0,0,1,7,3.25A32.83,32.83,0,0,1,295.83,198a40.69,40.69,0,0,0-11.68,1.14c-5.72,1.27-10.25-1.14-14.41-4.55a26.84,26.84,0,0,1-4.06-4.62c-.55-.71-3.4-5.79-.5-5a3.09,3.09,0,0,1,1.2.8,19.87,19.87,0,0,0,5.51,4.16c2.66,1.13,5.77,1,8.35,2.27a1.26,1.26,0,0,0,.65.19C281.36,192.36,281.59,191.73,281.41,191.29ZM188.7,59.06c2.06-2.47,4.93-2.81,7.8-3.11,1.73,3.66,2.21,14.29.94,20.38h-2.33c-.63-3.09-.59-6.23-2-9S190.25,61.94,188.7,59.06Zm-16,23.68a32.24,32.24,0,0,1,4.81-2c2.19-.76,4.42-1.32,6.61-2,1.21-.41,2.27-1.25,3.53-1.53s3.16.76,1.47,2a3.11,3.11,0,0,0-.51.36c-1.9,2,3.37,2.6,4,2.63a35.59,35.59,0,0,0,6.28,0,12.22,12.22,0,0,0,5.84-2.17c.58-.43,1.15-1.16.84-1.81s-1.16-.67-1.8-1c-2.22-1-.65-4.71-.42-6.46,1.76-.87,3.52-1.68,5.21-2.6a50,50,0,0,0,9.77-7A9.82,9.82,0,0,1,222,58.81a2.05,2.05,0,0,1,2.67.8,7.53,7.53,0,0,1,1,2.22,18.46,18.46,0,0,1-1.07,12.38,36.92,36.92,0,0,1-4.7,7.48c-.6.73-1.52,2.39-.69,3.18.59.57,2.17.2,2.82-.07,1.92-.79,3.35-2.32,5.36-3a17.92,17.92,0,0,1,5.87-.72c3.48,0,6.31,4.93,5,7.68a14.58,14.58,0,0,1-1.35,2.41,31.67,31.67,0,0,1-7.87,7c-.6.41-1.26.73-1.82,1.19a2.67,2.67,0,0,0-1.07,1.83.93.93,0,0,0,.24.74.86.86,0,0,0,.36.2,4.9,4.9,0,0,0,3-.1,21.9,21.9,0,0,1,2.92-.82c3.88-.56,7.05-.5,10.56,1.55A24.84,24.84,0,0,1,255.6,120a28.15,28.15,0,0,1,.31,7.09c-1.24-.25-2-.36-2.82-.58-3.16-.91-6.37-1.68-9.43-2.83a32.7,32.7,0,0,1-14-10.27c-.19-.23-.3-.54-.51-.77a2.18,2.18,0,0,0-3-.36,8.83,8.83,0,0,0-1.66,1.79,25.58,25.58,0,0,0-4.26,9.5,4.54,4.54,0,0,1-1.1,2.63,5.94,5.94,0,0,1-4.35-.45c-4.59-2.2-8.79-4.91-12-9a50.6,50.6,0,0,1-4.84-7.11,5.89,5.89,0,0,0-2.22-2.75,1.59,1.59,0,0,0-1.54,0,2.09,2.09,0,0,0-.63,1.82,19,19,0,0,1,0,2.5c-.24,2-1.68,3.34-3.17,4.54A46.68,46.68,0,0,1,175,124c-2.83.88-5.67,1.79-8.51,2.66a36.41,36.41,0,0,1-8.79,1.47,5.44,5.44,0,0,1-3.41-.52,8.7,8.7,0,0,1,0-1.69,27.47,27.47,0,0,1,2.88-7.45c1.92-3.61,4.73-10.19,9.31-10.67a23.93,23.93,0,0,1,3.59.06,32.9,32.9,0,0,0,5.87-.26,3.68,3.68,0,0,0,1.73-.55,1.35,1.35,0,0,0,.51-1.61,2,2,0,0,0-1.55-.79c-4-.63-7.23-.83-10.41-3.4a7.31,7.31,0,0,1-2.32-8.92A20.64,20.64,0,0,1,172.72,82.74Zm-99.88,83c1.66-4.75,4.21-9.09,6.42-13.68a137.06,137.06,0,0,1,7.5-13c.46-.74.86-1.51,1.32-2.25,2.18-3.51,4.08-7.39,6.64-10.59a145.26,145.26,0,0,1,21.74-20.92A132.41,132.41,0,0,1,141.8,89c3.87-1.87,8.33-3.24,14.13-5.27,4.11-1.43,8.23-2.82,11.8-3.79a25.82,25.82,0,0,0-8.45,10.4,11.87,11.87,0,0,0,.69,11.52c.4.7.86,1.36,1.34,2.1-.54.67-1.06,1.3-1.59,1.92a56.7,56.7,0,0,0-8.34,12.91,29.23,29.23,0,0,0-2.24,7c-.78,4.34.43,6.13,4.65,7.13.66.16,1.34.27,2.18.44l-.12,2.89c-.47.13-.93.27-1.39.44a4.33,4.33,0,0,0-2.11,1.4,4.4,4.4,0,0,0-.45,3.22,4.08,4.08,0,0,0,.81,2.17,2.71,2.71,0,0,0,.95.66,5.74,5.74,0,0,0,1.86.35l0,1c-.16,4.08.59,8.16.21,12.53-5.82,0-11.23,1.74-16.95,2.59a19.1,19.1,0,0,1,.37-6.74,11.69,11.69,0,0,0,2.07-1,2.09,2.09,0,0,0,.76-2.47,2.37,2.37,0,0,0-2-1.71,8.81,8.81,0,0,0-1.54,0l-4,.27-11.31.72c.34-1,.56-1.74.86-2.47,1.14-2.76,2.31-5.5,3.45-8.25a10,10,0,0,0,.59-1.75,2.41,2.41,0,0,0-1.62-2.93,2.38,2.38,0,0,0-2.9,1.1,16.71,16.71,0,0,0-1,2.26c-1.36,3.44-2.7,6.89-4.07,10.33-.26.65-.6,1.27-.87,1.84-.45.08-.75.16-1,.2-3.57.38-7.15.71-10.72,1.15-2.14.27-4.26.67-6.37,1.12a2,2,0,0,0-1.74,2.2,2.22,2.22,0,0,0,2,2.08c.77.15,1.55.2,2.37.31.53,4.24,1.64,8.19,2.21,12.37-4.28,1.79-7.57,4.2-9.5,7.44a12.22,12.22,0,0,0-5.57-1.07A15.51,15.51,0,0,0,81,177.91a7.85,7.85,0,0,1-7.36.79,37.22,37.22,0,0,0-4-1.14A116.72,116.72,0,0,1,72.84,165.76Zm261.07,59.65c-1.92,20.05-9.24,39.38-19.94,56.38a132.37,132.37,0,0,1-8.63,12.36,129.92,129.92,0,0,1-33.52,30.12c-16.34,10.29-37.23,18-56.47,20.15a127,127,0,0,1-14,.66c-.56,0-.56-.17-1.13-.17a143.32,143.32,0,0,1-15-1.29,135.49,135.49,0,0,1-14.89-2.26,137.19,137.19,0,0,1-28.42-9.9,135,135,0,0,1-13.32-7.09,143,143,0,0,1-23.23-19.15,135.46,135.46,0,0,1-10.15-11.13,136.65,136.65,0,0,1-8.58-12.37,137.44,137.44,0,0,1-7.44-13.09,122.9,122.9,0,0,1-10-28.21l0-.16a131.46,131.46,0,0,1-2.27-14.89,134.46,134.46,0,0,1-1-15,136.32,136.32,0,0,1,.65-15.06c.4-3.6,1-8.18,1.9-12.82a11.83,11.83,0,0,1,1.4.26c1.08.32,2.15.68,3.22,1.05a10.1,10.1,0,0,0,6.94,0c1.44-.53,2.81-1.24,4.19-1.9,3-1.43,6-2,8.82-.82a18,18,0,0,0-.11,5.52c-.65.68-1.17,1.33-1.79,1.86a17.08,17.08,0,0,0-5.06,8.28c-.28.88-.56,1.76-.86,2.64a20.85,20.85,0,0,0,0,13.2,2.39,2.39,0,0,0-.61.93,38.28,38.28,0,0,0,.43,26.94c3.19,7.94,9,14.26,15.89,19.24,12.48,9.09,26.73,13.5,41.78,15.8a470.47,470.47,0,0,0,55.06,5.11c17.34.59,34.66-1.14,51.76-3.89,16.54-2.65,31.45-7,45.21-17,6.84-5,12.71-11.3,15.89-19.24a37.23,37.23,0,0,0,2.6-11.64,31.22,31.22,0,0,0,2.89-16.63,51.54,51.54,0,0,0-2.44-12.06A40.41,40.41,0,0,0,303,182.71c-1.13-1-2.27-2-3.44-3a19.08,19.08,0,0,1,3.88-1.16,4.54,4.54,0,0,1,3.51.69c1,.69,2,1.49,3,2.18a12.62,12.62,0,0,0,12.82,1.24c1.79-.77,3.56-1.59,5.38-2.26a5.27,5.27,0,0,1,3.48-.22c0,.05,0,.1,0,.15,1.05,4.63,1.31,9.34,1.94,15A145.6,145.6,0,0,1,333.91,225.41Z"/><path class="a378252d-61bf-4576-8897-02fba5e47a8c" d="M238.86,146.51a1.56,1.56,0,0,0-.53.38,4,4,0,0,0-.67,1.31,57.15,57.15,0,0,1-3.92,8.57,2.48,2.48,0,0,0-.42,1.12c-.09,2,2.91,1.48,3.65.36a21.61,21.61,0,0,0,3.41-9.83c.05-.74,0-1.66-.73-1.94A1.08,1.08,0,0,0,238.86,146.51Z"/><path class="a378252d-61bf-4576-8897-02fba5e47a8c" d="M191.45,146.51a1.71,1.71,0,0,0-.54.38,3.77,3.77,0,0,0-.66,1.31,57.15,57.15,0,0,1-3.92,8.57,2.61,2.61,0,0,0-.43,1.12c-.08,2,2.92,1.48,3.66.36a21.61,21.61,0,0,0,3.41-9.83c.05-.74,0-1.66-.73-1.94A1.08,1.08,0,0,0,191.45,146.51Z"/></svg>