<svg id="Dark" xmlns="http://www.w3.org/2000/svg" width="1200" height="600" viewBox="0 0 1200 600">
  <metadata><?xpacket begin="﻿" id="W5M0MpCehiHzreSzNTczkc9d"?>
<x:xmpmeta xmlns:x="adobe:ns:meta/" x:xmptk="Adobe XMP Core 5.6-c142 79.160924, 2017/07/13-01:06:39        ">
   <rdf:RDF xmlns:rdf="http://www.w3.org/1999/02/22-rdf-syntax-ns#">
      <rdf:Description rdf:about=""/>
   </rdf:RDF>
</x:xmpmeta>
                                                                                                    
                                                                                                    
                                                                                                    
                                                                                                    
                                                                                                    
                                                                                                    
                                                                                                    
                                                                                                    
                                                                                                    
                                                                                                    
                                                                                                    
                                                                                                    
                                                                                                    
                                                                                                    
                                                                                                    
                                                                                                    
                                                                                                    
                                                                                                    
                                                                                                    
                                                                                                    
                           
<?xpacket end="w"?></metadata>
<defs>
    <style>
      .cls-1 {
        fill: #7da22f;
      }

      .cls-2 {
        fill: #464336;
      }

      .cls-2, .cls-3 {
        fill-rule: evenodd;
      }

      .cls-3 {
        fill: #8c2626;
      }
    </style>
  </defs>
  <rect id="Background" class="cls-1" width="1200" height="600"/>
  <path id="Text_Shape" data-name="Text Shape" class="cls-2" d="M322.924,454.949q-8.111.322-16.113,0.51t-16.006.457l-0.645,16.113,12.891,0.215-0.215,4.19a9.24,9.24,0,0,1-3.733,1.826,17.57,17.57,0,0,1-4.216.537,10.939,10.939,0,0,1-5.291-1.235,11.746,11.746,0,0,1-3.813-3.25,13.926,13.926,0,0,1-2.283-4.619,19.342,19.342,0,0,1-.752-5.4,19.134,19.134,0,0,1,1.611-8,17.88,17.88,0,0,1,4.378-6.016,19.26,19.26,0,0,1,6.5-3.786,23.983,23.983,0,0,1,8.03-1.316,49.931,49.931,0,0,1,6.257.4,27.335,27.335,0,0,1,6.2,1.53l1.5-20.517a23.617,23.617,0,0,0-4.511-1.987,36.917,36.917,0,0,0-5.076-1.263,52.243,52.243,0,0,0-5.237-.644q-2.632-.187-4.941-0.188a39.343,39.343,0,0,0-11.6,1.665,38.666,38.666,0,0,0-9.99,4.673,39.407,39.407,0,0,0-8.164,7.17,44.389,44.389,0,0,0-6.1,9.131A49.313,49.313,0,0,0,256.43,467.2a37.967,37.967,0,0,0,2.685,14.341,35.6,35.6,0,0,0,7.439,11.575,34.166,34.166,0,0,0,11.306,7.707,36.2,36.2,0,0,0,14.341,2.793,49.5,49.5,0,0,0,8.487-.778,50.385,50.385,0,0,0,8.7-2.337,41.008,41.008,0,0,0,7.949-3.921,25.164,25.164,0,0,0,6.23-5.532Zm65.017-16.489a25.45,25.45,0,0,0-7.063-8.433,30.763,30.763,0,0,0-10.125-5.075,41.53,41.53,0,0,0-11.843-1.692q-3.975,0-7.761.188t-7.466.7a69.05,69.05,0,0,0-14.744,3.733q-0.321,6.177-.429,12.246T328.3,452.371q-0.323,12.246-.564,24.385t-0.51,24.385h23.095l0.967-22.344,6.66-.215,8.272,22.881,24.17-4.727L377.6,473.963a35.825,35.825,0,0,0,5.961-4.619,22.424,22.424,0,0,0,4.029-5.264,22.876,22.876,0,0,0,2.283-6.257,36.672,36.672,0,0,0,.725-7.6A24.9,24.9,0,0,0,387.941,438.46Zm-22.612,18.1a10.122,10.122,0,0,1-3.116,3.168,14,14,0,0,1-4.3,1.827,19.54,19.54,0,0,1-4.7.59h-1.289l0.859-19.98a14.566,14.566,0,0,1,1.987-.4,16.126,16.126,0,0,1,2.1-.134,10.553,10.553,0,0,1,4.216.779,8.377,8.377,0,0,1,3.008,2.148,9.174,9.174,0,0,1,1.826,3.25,13.179,13.179,0,0,1,.618,4.135A8.548,8.548,0,0,1,365.329,456.561Zm87.656-6.634a42.324,42.324,0,0,0-2.2-8.11,32.172,32.172,0,0,0-3.76-7.063,25.144,25.144,0,0,0-5.371-5.559,24.316,24.316,0,0,0-7.036-3.653,27.487,27.487,0,0,0-8.728-1.315,31.587,31.587,0,0,0-10.5,1.665,29.386,29.386,0,0,0-8.513,4.619,33.432,33.432,0,0,0-6.58,6.9,40.836,40.836,0,0,0-4.672,8.566,49.8,49.8,0,0,0-2.767,9.615,55.424,55.424,0,0,0-.913,9.99,49.151,49.151,0,0,0,.913,9.453,44.653,44.653,0,0,0,2.686,8.862A35.927,35.927,0,0,0,400,491.634a29.97,29.97,0,0,0,6.257,6.15,28.625,28.625,0,0,0,7.976,4.055,30.941,30.941,0,0,0,9.722,1.45,44.139,44.139,0,0,0,5.264-.322,38.8,38.8,0,0,0,5.317-1.021,31.145,31.145,0,0,0,5.076-1.826,23.719,23.719,0,0,0,4.538-2.739L446.728,473q-1.666,1.128-3.975,2.525t-4.834,2.6a38.834,38.834,0,0,1-5.076,2.015,15.7,15.7,0,0,1-4.7.805,11.272,11.272,0,0,1-7.117-2.309,13.334,13.334,0,0,1-4.378-6.177q9.077-1.288,18.155-2.605t18.261-1.907a68.261,68.261,0,0,0,.645-9.345A51.776,51.776,0,0,0,452.985,449.927Zm-20.759,7.063-15.9,1.5a28.645,28.645,0,0,1,1.128-3.76,17.539,17.539,0,0,1,1.934-3.786,11.178,11.178,0,0,1,2.819-2.9A6.413,6.413,0,0,1,426,446.893a5,5,0,0,1,2.954.832,6.4,6.4,0,0,1,1.907,2.122,9.818,9.818,0,0,1,1.047,2.873,15.484,15.484,0,0,1,.323,3.089v1.181Zm84.191-7.063a42.179,42.179,0,0,0-2.2-8.11,32.127,32.127,0,0,0-3.759-7.063,25.148,25.148,0,0,0-5.372-5.559,24.3,24.3,0,0,0-7.036-3.653,27.478,27.478,0,0,0-8.728-1.315,31.581,31.581,0,0,0-10.5,1.665,29.386,29.386,0,0,0-8.513,4.619,33.432,33.432,0,0,0-6.58,6.9,40.839,40.839,0,0,0-4.673,8.566,49.872,49.872,0,0,0-2.766,9.615,55.424,55.424,0,0,0-.913,9.99,49.151,49.151,0,0,0,.913,9.453,44.653,44.653,0,0,0,2.686,8.862,35.885,35.885,0,0,0,4.458,7.735,29.946,29.946,0,0,0,6.257,6.15,28.625,28.625,0,0,0,7.976,4.055,30.941,30.941,0,0,0,9.722,1.45,44.135,44.135,0,0,0,5.263-.322,38.817,38.817,0,0,0,5.318-1.021,31.1,31.1,0,0,0,5.075-1.826,23.726,23.726,0,0,0,4.539-2.739L510.16,473q-1.665,1.128-3.974,2.525t-4.834,2.6a38.89,38.89,0,0,1-5.076,2.015,15.706,15.706,0,0,1-4.7.805,11.274,11.274,0,0,1-7.117-2.309,13.332,13.332,0,0,1-4.377-6.177q9.077-1.288,18.154-2.605t18.262-1.907a68.261,68.261,0,0,0,.645-9.345A51.672,51.672,0,0,0,516.417,449.927Zm-20.759,7.063-15.9,1.5a28.645,28.645,0,0,1,1.128-3.76,17.536,17.536,0,0,1,1.933-3.786,11.166,11.166,0,0,1,2.82-2.9,6.411,6.411,0,0,1,3.787-1.154,5.005,5.005,0,0,1,2.954.832,6.411,6.411,0,0,1,1.907,2.122,9.818,9.818,0,0,1,1.047,2.873,15.481,15.481,0,0,1,.322,3.089v1.181Zm91.631,10.689q0-3.921-.188-8.111t-0.725-8.513a66.188,66.188,0,0,0-1.558-8.3,41.79,41.79,0,0,0-2.685-7.493,22.868,22.868,0,0,0-4.136-6.1,18.172,18.172,0,0,0-5.908-4.082,19.835,19.835,0,0,0-8-1.5,16.232,16.232,0,0,0-4.7.671,19.673,19.673,0,0,0-4.216,1.827,21.132,21.132,0,0,0-3.733,2.766,34.567,34.567,0,0,0-3.249,3.437l0.214-8.594-25.351,1.29q-0.593,18.96-1.585,37.705t-2.068,37.7l27.393-1.182q0.269-9.559.43-18.933T547.65,461.4q0-1.182.081-3.035t0.322-3.948a38,38,0,0,1,.725-4.189,17.465,17.465,0,0,1,1.316-3.787,8.495,8.495,0,0,1,2.095-2.766,4.6,4.6,0,0,1,3.088-1.074,2.081,2.081,0,0,1,1.746,1.1,10.655,10.655,0,0,1,1.235,2.82,26.539,26.539,0,0,1,.806,3.786q0.294,2.069.457,4.029t0.214,3.518q0.054,1.558.054,2.255a154.594,154.594,0,0,1-1.182,19.148q-1.182,9.482-2.793,18.987l30.938,0.537q0.269-6.015.4-11.95t0.134-12v-7.143Zm84.783-22.559a30.03,30.03,0,0,0-7.278-10.635,31.881,31.881,0,0,0-11.118-6.66,41.623,41.623,0,0,0-14.126-2.309,100.811,100.811,0,0,0-12.434.778,67.641,67.641,0,0,0-12.166,2.659l-1.5,72.08q2.524,0.27,4.942.4t4.941,0.134a81.781,81.781,0,0,0,13.186-1.047,61.68,61.68,0,0,0,12.112-3.223,47.216,47.216,0,0,0,10.474-5.559,36.06,36.06,0,0,0,8.244-8.083,36.89,36.89,0,0,0,5.4-10.742,44.392,44.392,0,0,0,1.934-13.562A36.9,36.9,0,0,0,672.072,445.12Zm-19.417,18.423a19.843,19.843,0,0,1-1.155,6.042,18.382,18.382,0,0,1-2.954,5.318,17.762,17.762,0,0,1-4.538,4.028,15.223,15.223,0,0,1-5.855,2.122l2.149-33.3a12.737,12.737,0,0,1,5.639,1.37,11.515,11.515,0,0,1,3.894,3.33,13.349,13.349,0,0,1,2.2,4.753,21.325,21.325,0,0,1,.617,5.586v0.752Zm89.134-16.892A30.1,30.1,0,0,0,723.8,428.9a40.039,40.039,0,0,0-14.206-2.417,31.013,31.013,0,0,0-9.185,1.343,32.378,32.378,0,0,0-8.083,3.76,33.79,33.79,0,0,0-6.741,5.747,36.465,36.465,0,0,0-5.129,7.305,37.53,37.53,0,0,0-4.378,17.617,34.53,34.53,0,0,0,1.209,9.184,35.879,35.879,0,0,0,3.384,8.245,33.381,33.381,0,0,0,5.263,6.983,32.955,32.955,0,0,0,6.9,5.371,34.945,34.945,0,0,0,8.191,3.464,33.742,33.742,0,0,0,9.211,1.235,33.106,33.106,0,0,0,17.7-5,32.788,32.788,0,0,0,6.821-5.666,35.265,35.265,0,0,0,5.157-7.278,36.913,36.913,0,0,0,3.249-8.513A40.969,40.969,0,0,0,741.789,446.651Zm-22.1,20.168a12.3,12.3,0,0,1-2.149,3.894,10.234,10.234,0,0,1-3.411,2.686,10.109,10.109,0,0,1-4.538.994,8.533,8.533,0,0,1-4.431-1.128,10.27,10.27,0,0,1-3.2-2.954,13.425,13.425,0,0,1-1.934-4.082,16.382,16.382,0,0,1-.644-4.512,13.313,13.313,0,0,1,.752-4.485,10.949,10.949,0,0,1,2.175-3.706,10.336,10.336,0,0,1,3.411-2.5,10.694,10.694,0,0,1,4.511-.913,8.94,8.94,0,0,1,4.378,1.048,10.065,10.065,0,0,1,3.2,2.739,12.325,12.325,0,0,1,1.96,3.867,15.143,15.143,0,0,1,.671,4.485A14.029,14.029,0,0,1,719.687,466.819Zm94.423,0.86q0-3.921-.188-8.111t-0.725-8.513a66.37,66.37,0,0,0-1.557-8.3,41.792,41.792,0,0,0-2.686-7.493,22.868,22.868,0,0,0-4.136-6.1,18.172,18.172,0,0,0-5.908-4.082,19.835,19.835,0,0,0-8-1.5,16.22,16.22,0,0,0-4.7.671,19.681,19.681,0,0,0-4.217,1.827,21.169,21.169,0,0,0-3.733,2.766,34.567,34.567,0,0,0-3.249,3.437l0.215-8.594-25.352,1.29q-0.591,18.96-1.584,37.705t-2.068,37.7l27.392-1.182q0.269-9.559.43-18.933t0.43-18.879q0-1.182.08-3.035t0.323-3.948a37.77,37.77,0,0,1,.725-4.189,17.359,17.359,0,0,1,1.316-3.787,8.493,8.493,0,0,1,2.094-2.766A4.6,4.6,0,0,1,782.1,442.6a2.081,2.081,0,0,1,1.745,1.1,10.654,10.654,0,0,1,1.236,2.82,26.681,26.681,0,0,1,.8,3.786q0.3,2.069.457,4.029t0.215,3.518q0.053,1.558.053,2.255a154.788,154.788,0,0,1-1.181,19.148q-1.182,9.482-2.793,18.987l30.937,0.537q0.269-6.015.4-11.95t0.134-12v-7.143Zm63.621-41.116q-2.713.027-5.4,0.027-3.492,0-6.929-.054t-6.928-.161q0.106,1.075.161,2.1t0.053,2.094q0,1.666-.08,4.673t-0.269,6.795q-0.189,3.786-.564,8.083t-0.993,8.513q-0.618,4.218-1.5,8.084a42.121,42.121,0,0,1-2.122,6.821,15.953,15.953,0,0,1-2.846,4.7,4.868,4.868,0,0,1-3.653,1.746A2.959,2.959,0,0,1,844,478.448a11.634,11.634,0,0,1-1.4-3.572,24.567,24.567,0,0,1-.564-4.136q-0.108-2.094-.107-3.222a78.729,78.729,0,0,1,.59-9.668q0.591-4.781,1.558-9.534t2.175-9.453q1.209-4.7,2.444-9.373-6.553.108-13.159-.161t-13.159-.591q-1.182,4.674-1.961,9.776t-1.262,10.312q-0.483,5.211-.671,10.393T818.3,469.236a31,31,0,0,0,.779,6.768,36.794,36.794,0,0,0,2.255,6.848,36.4,36.4,0,0,0,3.626,6.392,28.638,28.638,0,0,0,4.834,5.317,22.9,22.9,0,0,0,5.908,3.652,18.092,18.092,0,0,0,6.875,1.424,18.88,18.88,0,0,0,3.277-.188,17.4,17.4,0,0,0,3.33-.806,14.415,14.415,0,0,0,3.034-1.477,11.543,11.543,0,0,0,2.5-2.148l-0.967,8.271,22.022-1.611q1.557-18.96,3.276-37.678t4.136-37.625Q880.443,426.536,877.731,426.563Zm7.009-.188L884.1,451.727l16.006-.86,2.041,49.844,22.666-1.182,1.933-49.843,16.006-.645,0.537-22.773Z"/>
  <path id="Signet_Shape" data-name="Signet Shape" class="cls-3" d="M657.143,272.365a54.723,54.723,0,0,0-32.715-32.275,72.783,72.783,0,0,0-25.83-4.4,56.334,56.334,0,0,0-16.7,2.442,58.8,58.8,0,0,0-14.7,6.836,61.442,61.442,0,0,0-12.256,10.449,66.312,66.312,0,0,0-9.326,13.281,68.263,68.263,0,0,0-7.959,32.031,62.854,62.854,0,0,0,2.2,16.7,65.35,65.35,0,0,0,6.153,14.99,60.671,60.671,0,0,0,9.57,12.7,59.81,59.81,0,0,0,12.549,9.766,63.56,63.56,0,0,0,14.892,6.3,61.363,61.363,0,0,0,16.749,2.246,60.2,60.2,0,0,0,32.177-9.082,59.671,59.671,0,0,0,12.4-10.3,64.176,64.176,0,0,0,9.375-13.232,67.1,67.1,0,0,0,5.908-15.479A74.479,74.479,0,0,0,657.143,272.365Zm-40.186,36.67a22.374,22.374,0,0,1-3.906,7.08,18.626,18.626,0,0,1-6.2,4.883,18.4,18.4,0,0,1-8.252,1.807,15.523,15.523,0,0,1-8.057-2.051,18.676,18.676,0,0,1-5.811-5.371,24.373,24.373,0,0,1-3.515-7.422,29.745,29.745,0,0,1-1.172-8.2,24.216,24.216,0,0,1,1.367-8.154,19.9,19.9,0,0,1,3.955-6.739,18.791,18.791,0,0,1,6.2-4.541,19.445,19.445,0,0,1,8.2-1.66,16.274,16.274,0,0,1,7.959,1.9,18.282,18.282,0,0,1,5.81,4.981,22.391,22.391,0,0,1,3.565,7.031,27.525,27.525,0,0,1,1.22,8.154A25.517,25.517,0,0,1,616.957,309.035Z"/>
</svg>
