<svg xmlns="http://www.w3.org/2000/svg" width="400" height="400" viewBox="0 0 400 400">
  <metadata><?xpacket begin="﻿" id="W5M0MpCehiHzreSzNTczkc9d"?>
<x:xmpmeta xmlns:x="adobe:ns:meta/" x:xmptk="Adobe XMP Core 5.6-c142 79.160924, 2017/07/13-01:06:39        ">
   <rdf:RDF xmlns:rdf="http://www.w3.org/1999/02/22-rdf-syntax-ns#">
      <rdf:Description rdf:about=""/>
   </rdf:RDF>
</x:xmpmeta>
                                                                                                    
                                                                                                    
                                                                                                    
                                                                                                    
                                                                                                    
                                                                                                    
                                                                                                    
                                                                                                    
                                                                                                    
                                                                                                    
                                                                                                    
                                                                                                    
                                                                                                    
                                                                                                    
                                                                                                    
                                                                                                    
                                                                                                    
                                                                                                    
                                                                                                    
                                                                                                    
                           
<?xpacket end="w"?></metadata>
<defs>
    <style>
      .cls-1 {
        fill: #7da22f;
        fill-rule: evenodd;
      }
    </style>
  </defs>
  <path id="Signet_Shape" data-name="Signet Shape" class="cls-1" d="M344.056,131.613Q332.7,102.682,312.074,82.3T262.269,50.925q-29.176-10.986-64.575-10.986a140.859,140.859,0,0,0-41.748,6.1A147.057,147.057,0,0,0,119.2,63.132a153.649,153.649,0,0,0-30.64,26.123,165.832,165.832,0,0,0-23.315,33.2,170.634,170.634,0,0,0-19.9,80.078,157.037,157.037,0,0,0,5.493,41.748A163.383,163.383,0,0,0,66.224,281.76,151.741,151.741,0,0,0,90.15,313.5a149.6,149.6,0,0,0,31.372,24.414,158.841,158.841,0,0,0,37.232,15.747,153.344,153.344,0,0,0,41.87,5.615,150.475,150.475,0,0,0,80.444-22.7,149.153,149.153,0,0,0,31.006-25.757,160.331,160.331,0,0,0,23.438-33.081,167.733,167.733,0,0,0,14.77-38.7,176.986,176.986,0,0,0,5.127-42.847Q355.409,160.546,344.056,131.613ZM243.593,223.288a55.959,55.959,0,0,1-9.766,17.7,46.548,46.548,0,0,1-15.5,12.207,45.968,45.968,0,0,1-20.63,4.517,38.8,38.8,0,0,1-20.141-5.127,46.679,46.679,0,0,1-14.527-13.428,60.9,60.9,0,0,1-8.789-18.555,74.346,74.346,0,0,1-2.93-20.507,60.522,60.522,0,0,1,3.418-20.386,49.8,49.8,0,0,1,9.888-16.846,46.949,46.949,0,0,1,15.5-11.352,48.59,48.59,0,0,1,20.508-4.151,40.659,40.659,0,0,1,19.9,4.761,45.712,45.712,0,0,1,14.527,12.451,56,56,0,0,1,8.911,17.578,68.8,68.8,0,0,1,3.052,20.386A63.805,63.805,0,0,1,243.593,223.288Z"/>
</svg>
